<?xml version="1.0" encoding="UTF-8" standalone="no"?>
<svg
   width="512"
   height="128"
   viewBox="0 0 512 128"
   version="1.1"
   id="svg22"
   sodipodi:docname="Archive_logo.svg"
   inkscape:version="1.4.3 (0d15f75042, 2025-12-25)"
   xml:space="preserve"
   inkscape:export-filename="Archive_logo_plain.svg"
   inkscape:export-xdpi="96"
   inkscape:export-ydpi="96"
   xmlns:inkscape="http://www.inkscape.org/namespaces/inkscape"
   xmlns:sodipodi="http://sodipodi.sourceforge.net/DTD/sodipodi-0.dtd"
   xmlns:xlink="http://www.w3.org/1999/xlink"
   xmlns="http://www.w3.org/2000/svg"
   xmlns:svg="http://www.w3.org/2000/svg"
   xmlns:rdf="http://www.w3.org/1999/02/22-rdf-syntax-ns#"
   xmlns:cc="http://creativecommons.org/ns#"
   xmlns:dc="http://purl.org/dc/elements/1.1/"><defs
     id="defs22"><inkscape:path-effect
       effect="fillet_chamfer"
       id="path-effect7"
       is_visible="true"
       lpeversion="1"
       nodesatellites_param="F,0,0,1,0,13.650039,0,1 @ F,0,0,1,0,0,0,1 @ F,0,0,1,0,0,0,1 @ F,0,0,1,0,0,0,1"
       radius="0"
       unit="px"
       method="auto"
       mode="F"
       chamfer_steps="1"
       flexible="false"
       use_knot_distance="true"
       apply_no_radius="true"
       apply_with_radius="true"
       only_selected="false"
       hide_knots="false" /><inkscape:path-effect
       effect="fillet_chamfer"
       id="path-effect5"
       is_visible="true"
       lpeversion="1"
       nodesatellites_param="F,0,0,1,0,0,0,1 @ F,0,0,1,0,0,0,1 @ F,0,0,1,0,0,0,1 @ F,0,0,1,0,0,0,1"
       radius="0"
       unit="px"
       method="auto"
       mode="F"
       chamfer_steps="1"
       flexible="false"
       use_knot_distance="true"
       apply_no_radius="true"
       apply_with_radius="true"
       only_selected="false"
       hide_knots="false" /><inkscape:path-effect
       effect="fillet_chamfer"
       id="path-effect4"
       is_visible="true"
       lpeversion="1"
       nodesatellites_param="F,0,0,1,0,46.262287,0,1 @ F,0,0,1,0,0,0,1 @ F,0,0,1,0,0,0,1 @ F,0,0,1,0,0,0,1"
       radius="0"
       unit="px"
       method="auto"
       mode="F"
       chamfer_steps="1"
       flexible="false"
       use_knot_distance="true"
       apply_no_radius="true"
       apply_with_radius="true"
       only_selected="false"
       hide_knots="false" /><linearGradient
       id="linearGradient9"
       inkscape:collect="always"><stop
         style="stop-color:#c8c8c8;stop-opacity:1;"
         offset="0"
         id="stop9" /><stop
         style="stop-color:#646464;stop-opacity:1;"
         offset="1"
         id="stop10" /></linearGradient><inkscape:path-effect
       effect="fillet_chamfer"
       id="path-effect24"
       is_visible="true"
       lpeversion="1"
       nodesatellites_param="F,0,0,1,0,0,0,1 @ F,0,0,1,0,0,0,1 @ F,0,0,1,0,0,0,1 @ F,0,0,1,0,0,0,1 @ F,0,0,1,0,0,0,1 @ F,0,0,1,0,0,0,1 @ F,0,0,1,0,0,0,1 @ F,0,0,1,0,0,0,1"
       radius="0"
       unit="px"
       method="auto"
       mode="F"
       chamfer_steps="1"
       flexible="false"
       use_knot_distance="true"
       apply_no_radius="true"
       apply_with_radius="true"
       only_selected="false"
       hide_knots="false" /><linearGradient
       inkscape:collect="always"
       xlink:href="#linearGradient9"
       id="linearGradient10"
       x1="64"
       y1="43.725754"
       x2="64"
       y2="70.892426"
       gradientUnits="userSpaceOnUse"
       gradientTransform="matrix(1.3425926,0,0,1.414172,-23.263778,-18.603851)" /></defs><sodipodi:namedview
     id="namedview22"
     pagecolor="#ffffff"
     bordercolor="#000000"
     borderopacity="0.25"
     inkscape:showpageshadow="2"
     inkscape:pageopacity="0.0"
     inkscape:pagecheckerboard="0"
     inkscape:deskcolor="#d1d1d1"
     showguides="false"
     inkscape:zoom="1.0195313"
     inkscape:cx="48.0613"
     inkscape:cy="168.70497"
     inkscape:window-width="1920"
     inkscape:window-height="1052"
     inkscape:window-x="0"
     inkscape:window-y="0"
     inkscape:window-maximized="1"
     inkscape:current-layer="layer1"
     showgrid="false"
     inkscape:lockguides="true" /><!-- 背景：软盘外壳 --><rect
     x="23.871944"
     y="19.837147"
     width="80"
     height="92.290909"
     fill="#3a3a3a"
     rx="4"
     ry="4"
     id="rect1"
     style="display:inline;fill:#000000;fill-opacity:1;stroke-width:0.909138" /><rect
     x="27.325521"
     y="23.119459"
     width="73.333336"
     height="85.454544"
     fill="#525252"
     id="rect4"
     style="display:inline;fill:#3c3c3c;fill-opacity:1;stroke-width:0.860026" /><path
     x="27.333334"
     y="23.127272"
     width="73.333"
     height="85.454544"
     fill="#525252"
     id="rect2"
     style="display:inline;fill:#2b2b2c;fill-opacity:1;stroke-width:1.10883"
     sodipodi:type="rect"
     transform="matrix(1,0,0,0.6015836,0,43.260776)"
     d="M 73.595621,23.127272 H 100.66633 V 108.58182 H 27.333334 V 69.389559 A 46.262287,46.262287 135 0 1 73.595621,23.127272 Z"
     inkscape:path-effect="#path-effect4" /><!-- 软盘标签区域 --><rect
     x="37.333332"
     y="19.837"
     width="46.666668"
     height="22.09"
     fill="#3a3a3a"
     rx="4.0999999"
     ry="3.9999988"
     id="rect1-6-7"
     style="fill:#000000;fill-opacity:1;stroke-width:0.377966" /><rect
     x="40.666668"
     y="19.837"
     width="46.666668"
     height="18.69713"
     fill="#3a3a3a"
     id="rect1-6-7-9"
     style="fill:#292929;fill-opacity:1;stroke-width:0.377966"
     sodipodi:type="rect"
     ry="4"
     rx="4" /><rect
     x="44.000008"
     y="18"
     width="46.666668"
     height="23.927273"
     fill="#3a3a3a"
     rx="4.0999999"
     ry="4"
     id="rect1-6"
     style="fill:#000000;fill-opacity:1;stroke-width:0.377966" /><rect
     x="35.666668"
     y="47.054546"
     width="56.666668"
     height="64.945457"
     fill="#3a3a3a"
     rx="4"
     ry="4"
     id="rect1-6-5"
     style="fill:#000000;fill-opacity:1;stroke-width:0.624745" /><rect
     x="47.333332"
     y="21.418182"
     width="40"
     height="17.090908"
     fill="#d9d9d9"
     id="rect3"
     style="fill:#d9d9d9;fill-opacity:1;stroke-width:0.540063" /><path
     x="47.333332"
     y="21.418182"
     width="40"
     height="17.090908"
     fill="#d9d9d9"
     id="rect7"
     style="fill:#afafaf;fill-opacity:1;stroke:none;stroke-width:0.705048"
     sodipodi:type="rect"
     transform="matrix(1,0,0,0.58674894,0,15.913923)"
     d="M 60.983371,21.418182 H 87.333332 V 38.50909 h -40 V 35.068221 A 13.650039,13.650039 135 0 1 60.983371,21.418182 Z"
     inkscape:path-effect="#path-effect7" /><rect
     x="77.333336"
     y="24.836363"
     width="6.6666665"
     height="10.254545"
     fill="#d9d9d9"
     id="rect3-6"
     style="fill:#3c3c3c;fill-opacity:1;stroke:#000000;stroke-width:2;stroke-linecap:butt;stroke-linejoin:round;stroke-dasharray:none;stroke-opacity:1;paint-order:stroke markers fill" /><!-- 标签文字占位（模拟像素字体） --><!-- 软盘写保护口 --><rect
     x="50.666668"
     y="21.418182"
     width="10"
     height="6.8363638"
     fill="#222222"
     id="rect11"
     style="stroke-width:0.999997" /><rect
     x="29"
     y="27.180761"
     width="3.3333333"
     height="5.1272726"
     fill="#222222"
     id="rect11-2"
     style="stroke-width:0.999997" /><rect
     x="29"
     y="91.490906"
     width="5"
     height="3.4181819"
     fill="#222222"
     id="rect11-2-1"
     style="stroke-width:0.999997" /><!-- 软盘内部磁片区 --><rect
     x="39"
     y="50.472729"
     width="50"
     height="58.109089"
     fill="#1C1C1C"
     id="rect12"
     style="fill:#ffffff;fill-opacity:1;stroke-width:0.877058" /><rect
     x="39"
     y="101.74545"
     width="50"
     height="6.8363638"
     fill="#1C1C1C"
     id="rect24"
     style="fill:#ffa019;fill-opacity:1;stroke-width:0.877057" /><!-- 模拟数据轨道（Teeworlds风格像素线条） --><!-- 模拟代码或能量条 --><!-- 角落装饰：Teeworlds风格小图标 --><!-- 小星星感 --><!-- 像素化高光（模拟光照） --><g
     id="g17"
     transform="matrix(0.74482761,0,0,0.70712758,17.327502,13.155296)"
     style="stroke-width:1.37791"><ellipse
       style="fill:url(#linearGradient10);fill-opacity:1;stroke:#000000;stroke-width:4.13376;stroke-linecap:butt;stroke-linejoin:round;stroke-dasharray:none;stroke-opacity:1;paint-order:normal"
       id="path24"
       cx="64"
       cy="57.30909"
       rx="12.083333"
       ry="12.390909" /><ellipse
       style="fill:#000000;fill-opacity:1;stroke:none;stroke-width:4.13376;stroke-linecap:butt;stroke-linejoin:round;stroke-dasharray:none;stroke-opacity:1;paint-order:normal"
       id="path24-6"
       cx="64"
       cy="57.30909"
       rx="2.5"
       ry="2.5636363" /></g><metadata
     id="metadata1"><rdf:RDF><cc:Work
         rdf:about=""><cc:license
           rdf:resource="http://creativecommons.org/licenses/by-sa/4.0/" /><dc:creator><cc:Agent><dc:title>Bamcane</dc:title></cc:Agent></dc:creator><dc:rights><cc:Agent><dc:title>TeeworldsArchive</dc:title></cc:Agent></dc:rights></cc:Work><cc:License
         rdf:about="http://creativecommons.org/licenses/by-sa/4.0/"><cc:permits
           rdf:resource="http://creativecommons.org/ns#Reproduction" /><cc:permits
           rdf:resource="http://creativecommons.org/ns#Distribution" /><cc:requires
           rdf:resource="http://creativecommons.org/ns#Notice" /><cc:requires
           rdf:resource="http://creativecommons.org/ns#Attribution" /><cc:permits
           rdf:resource="http://creativecommons.org/ns#DerivativeWorks" /><cc:requires
           rdf:resource="http://creativecommons.org/ns#ShareAlike" /></cc:License></rdf:RDF></metadata><ellipse
     style="fill:none;stroke:#000000;stroke-width:2;stroke-linejoin:round;stroke-dasharray:none;stroke-opacity:1;paint-order:stroke fill markers"
     id="path1"
     cx="59.75"
     cy="77.75"
     rx="4"
     ry="9" /><ellipse
     style="fill:none;stroke:#000000;stroke-width:2;stroke-linejoin:round;stroke-dasharray:none;stroke-opacity:1;paint-order:stroke fill markers"
     id="path1-6"
     cx="69.75"
     cy="77.75"
     rx="4"
     ry="9" /><path
     x="77.333336"
     y="24.836363"
     width="6.6669998"
     height="10.254545"
     fill="#d9d9d9"
     id="rect5"
     style="fill:#2c2c2c;fill-opacity:1;stroke:none;stroke-width:2.4398;stroke-linecap:butt;stroke-linejoin:round;stroke-dasharray:none;stroke-opacity:1;paint-order:stroke markers fill"
     sodipodi:type="rect"
     transform="matrix(1,0,0,0.67197245,0,11.510784)"
     d="m 77.333336,24.836363 h 6.667 v 10.254545 h -6.667 z"
     inkscape:path-effect="#path-effect5" /><g
     inkscape:label="图层 1"
     id="layer1"
     transform="matrix(7.7023633,0,0,8.502334,63.614142,-7.9303682)"
     style="stroke-width:0.467043"><g
       id="g4"
       inkscape:label="g2"
       style="display:inline;fill:none;stroke:#323232;stroke-width:0.865001;stroke-linecap:butt;stroke-linejoin:bevel;stroke-dasharray:none;stroke-opacity:1"
       transform="translate(0.16853202)"><path
         id="text3"
         style="font-style:normal;font-variant:normal;font-weight:normal;font-stretch:normal;font-size:9.525px;line-height:1;font-family:'Know Your Product';-inkscape-font-specification:'Know Your Product';letter-spacing:0px;writing-mode:lr-tb;direction:ltr;fill:none;fill-opacity:1;stroke:#323232;stroke-width:0.865001;stroke-linecap:butt;stroke-linejoin:bevel;stroke-dasharray:none;stroke-opacity:1;paint-order:stroke fill markers"
         sodipodi:type="inkscape:offset"
         inkscape:radius="0.28840402"
         inkscape:original="M 10.388672 4.9296875 C 10.153027 5.1033203 10.034351 5.3231934 10.03125 5.5898438 L 10.091797 5.8320312 L 10.152344 6.0722656 L 10.449219 6.4355469 L 10.994141 7.5195312 C 11.093359 7.8419922 11.154077 8.122583 11.175781 8.3613281 L 11.296875 8.5429688 L 11.355469 8.7851562 C 11.398877 8.8440674 11.419116 8.902832 11.416016 8.9648438 C 11.524536 9.119873 11.584448 9.2809815 11.59375 9.4453125 L 11.835938 9.8066406 L 11.896484 10.169922 C 12.200342 10.653613 12.380542 11.133838 12.439453 11.611328 C 13.69209 12.181836 14.394946 12.083398 14.546875 11.314453 L 14.425781 11.072266 L 14.365234 10.769531 C 13.887744 10.189722 13.627393 9.5495361 13.583984 8.8457031 C 13.450659 8.6844727 13.349463 8.5225586 13.28125 8.3613281 L 13.160156 7.8769531 L 13.039062 7.7617188 L 12.980469 7.5800781 L 12.919922 7.3984375 L 12.859375 7.2773438 L 12.742188 6.9140625 L 12.742188 6.7324219 C 12.692578 6.6952148 12.672339 6.6574951 12.681641 6.6171875 C 12.616528 6.4683594 12.57605 6.3266846 12.560547 6.1933594 C 12.36521 5.9205078 12.264014 5.639917 12.257812 5.3515625 C 12.062476 5.2027344 11.902515 5.0630127 11.775391 4.9296875 C 11.260693 5.0351074 10.797949 5.0351074 10.388672 4.9296875 z M 27.513672 4.9296875 C 26.651709 5.921875 26.957715 6.8628907 28.433594 7.7558594 L 28.802734 7.7558594 C 29.140698 7.5078125 29.487988 7.3847656 29.847656 7.3847656 C 29.959277 6.9258789 29.979517 6.515918 29.908203 6.15625 L 29.722656 6.0957031 L 29.662109 5.9101562 L 29.541016 5.8496094 L 29.416016 5.7285156 C 29.078052 5.471167 28.810571 5.244165 28.615234 5.0488281 C 28.196655 5.0612305 27.829932 5.0227051 27.513672 4.9296875 z M 32.480469 4.9296875 C 32.440161 4.9979004 32.399683 5.0364258 32.359375 5.0488281 C 31.841577 4.9496094 31.405395 5.0095215 31.048828 5.2265625 L 30.927734 5.5839844 L 30.988281 5.8828125 L 30.927734 6.2402344 C 30.946338 6.3022461 30.946338 6.3629639 30.927734 6.421875 L 30.927734 6.5976562 C 30.95874 6.9077148 30.95874 7.1672608 30.927734 7.375 L 30.988281 7.5566406 L 30.988281 9.2265625 L 31.048828 9.3476562 L 30.988281 9.7050781 C 31.068896 10.272485 31.048657 10.769385 30.927734 11.197266 L 31.164062 11.792969 L 31.642578 11.974609 C 32.02085 11.825781 32.380786 11.785303 32.71875 11.853516 C 32.867578 11.524854 32.966016 11.227588 33.015625 10.960938 C 32.916406 10.660181 32.876733 10.400635 32.898438 10.183594 L 32.898438 9.9433594 L 32.898438 9.5839844 L 32.898438 9.2871094 L 32.898438 8.9277344 L 32.898438 8.6914062 L 32.898438 8.0351562 L 32.898438 7.7929688 L 32.898438 7.5566406 L 32.898438 7.375 L 32.898438 7.1386719 C 32.876733 7.0797607 32.876733 7.0198486 32.898438 6.9609375 L 32.837891 6.4824219 L 32.837891 6.3007812 C 32.856494 6.0124268 32.896167 5.7731201 32.955078 5.5839844 L 32.898438 5.2265625 C 32.768213 5.0684326 32.629297 4.9699951 32.480469 4.9296875 z M 37.554688 4.9296875 C 37.077197 5.0878174 36.620776 5.1080566 36.183594 4.9902344 L 35.763672 5.2265625 L 35.703125 5.4082031 L 35.703125 6.8398438 L 35.763672 7.1386719 L 35.824219 8.1523438 C 35.802515 8.4810058 35.822754 8.7790772 35.884766 9.0488281 L 35.824219 9.2265625 L 35.824219 9.8261719 C 35.774609 10.533105 35.774609 11.110156 35.824219 11.556641 C 35.892432 11.596948 35.932104 11.637427 35.941406 11.677734 C 36.102637 11.736646 36.261792 11.756885 36.419922 11.738281 L 36.65625 11.738281 C 37.02522 11.828198 37.345483 11.865918 37.615234 11.853516 L 37.851562 11.556641 L 37.912109 11.197266 L 37.912109 10.900391 C 37.831494 10.602734 37.792969 10.343188 37.792969 10.123047 L 37.851562 9.765625 C 37.801953 9.278833 37.822192 8.8601318 37.912109 8.5097656 L 37.912109 8.3339844 C 37.871802 8.2750732 37.851562 8.2143555 37.851562 8.1523438 L 37.851562 7.5566406 L 37.792969 7.375 L 37.851562 7.1992188 L 37.851562 7.0175781 L 37.851562 6.5429688 C 37.823657 6.1833008 37.843896 5.8630371 37.912109 5.5839844 C 37.831494 5.317334 37.712817 5.1002197 37.554688 4.9296875 z M 39.265625 4.9296875 L 38.978516 5.2226562 L 38.978516 5.3945312 C 38.978516 5.6487793 38.958276 5.8642822 38.917969 6.0410156 C 38.958276 6.2425537 38.958276 6.4350586 38.917969 6.6210938 L 38.978516 6.9140625 L 38.917969 7.1464844 L 38.917969 8.7851562 L 38.978516 8.9570312 L 38.978516 10.416016 C 38.978516 10.707471 38.958276 10.942407 38.917969 11.119141 L 38.978516 11.46875 C 39.065332 11.664087 39.160205 11.818872 39.265625 11.933594 L 39.443359 11.933594 L 39.619141 11.994141 C 39.929199 11.848413 40.260962 11.80874 40.611328 11.876953 C 40.698145 11.563794 40.795776 11.311377 40.904297 11.119141 L 40.904297 10.708984 L 40.84375 10.416016 L 40.787109 10.007812 L 40.84375 9.890625 C 40.806543 9.8317139 40.787109 9.7737549 40.787109 9.7148438 L 40.787109 9.0175781 C 40.746802 8.8904541 40.726562 8.772583 40.726562 8.6640625 L 40.787109 8.4316406 L 40.787109 8.1992188 L 40.787109 7.5566406 L 40.787109 7.3242188 L 40.787109 7.0859375 L 40.787109 6.8535156 L 40.787109 6.6816406 L 40.787109 6.4453125 C 40.787109 6.2530762 40.76687 6.098291 40.726562 5.9804688 C 40.76687 5.611499 40.76687 5.2991699 40.726562 5.0449219 L 40.611328 4.9902344 C 40.096631 5.0460449 39.646997 5.0258057 39.265625 4.9296875 z M 55.148438 4.9296875 C 54.990308 5.0072021 54.831958 5.0274414 54.673828 4.9902344 C 54.636621 5.0367432 54.598901 5.0542236 54.558594 5.0449219 L 54.380859 5.0449219 L 54.205078 5.0449219 L 54.087891 5.1054688 L 53.912109 5.1054688 L 53.148438 5.1054688 C 52.509717 5.7410888 52.469238 6.3875977 53.027344 7.0449219 L 53.205078 7.0449219 L 53.326172 6.9277344 L 53.501953 6.9277344 L 53.679688 6.8691406 L 53.912109 6.8691406 L 54.087891 6.8691406 L 54.326172 6.8691406 L 55.380859 6.8691406 L 55.619141 6.6347656 C 55.913696 5.5743653 55.756152 5.0072021 55.148438 4.9296875 z M 16.152344 4.9746094 C 15.97251 5.2040527 15.85188 5.4056397 15.792969 5.5761719 C 15.85188 5.904834 15.872119 6.182666 15.853516 6.4121094 L 15.853516 6.8300781 C 15.813208 7.2982666 15.813208 7.6967285 15.853516 8.0253906 L 15.792969 8.2636719 C 15.783667 8.6729492 15.783667 9.011499 15.792969 9.28125 L 15.732422 9.4023438 C 15.791333 9.6813965 15.811572 9.9207031 15.792969 10.119141 C 15.721655 10.798169 15.721655 11.355786 15.792969 11.792969 C 16.000708 11.882886 16.180103 11.943604 16.332031 11.974609 C 16.778516 11.835083 17.176978 11.774365 17.527344 11.792969 C 17.685474 11.752661 17.785864 11.654224 17.826172 11.496094 L 17.886719 11.197266 C 17.827808 10.967822 17.787329 10.747949 17.765625 10.537109 L 17.705078 10.300781 C 17.754687 9.9814209 17.774927 9.7016357 17.765625 9.4628906 L 17.765625 9.28125 L 17.705078 8.5058594 L 17.765625 8.3847656 C 17.725317 8.1150147 17.725317 7.875708 17.765625 7.6679688 L 17.765625 7.1894531 L 17.765625 7.0078125 L 17.765625 6.2304688 C 17.855542 5.9111084 17.896021 5.6332764 17.886719 5.3945312 C 17.806104 5.2643066 17.745386 5.1436768 17.705078 5.0351562 L 17.527344 4.9746094 C 16.997144 5.0335205 16.539917 5.0335205 16.152344 4.9746094 z M 18.662109 4.9746094 C 18.063696 5.4831054 18.043457 6.0629151 18.601562 6.7109375 C 19.122461 6.729541 19.541162 6.7883057 19.857422 6.890625 C 19.820215 7.6378662 19.441992 7.937085 18.722656 7.7851562 C 18.682349 7.8750732 18.623584 7.935791 18.542969 7.9667969 L 18.486328 8.3847656 L 18.486328 8.5664062 C 18.374707 8.8547607 18.334229 9.152832 18.365234 9.4628906 C 18.504761 9.6799316 18.643677 9.8585205 18.783203 9.9980469 C 19.012646 10.249194 19.173755 10.489307 19.263672 10.71875 C 19.651245 11.03811 19.929077 11.396094 20.099609 11.792969 C 20.409668 11.913892 20.729932 11.934131 21.058594 11.853516 C 21.51748 12.082959 21.895703 12.022241 22.193359 11.671875 C 22.122046 11.414526 22.041895 11.197412 21.955078 11.017578 C 21.793848 10.86875 21.674365 10.727881 21.59375 10.597656 C 21.057349 10.228687 20.699365 9.7695068 20.519531 9.2207031 C 20.748975 9.071875 20.986328 8.9936768 21.234375 8.984375 C 21.823486 8.1565186 22.043359 7.2988769 21.894531 6.4121094 L 21.773438 6.2910156 C 21.543994 5.8507324 21.306641 5.5121826 21.058594 5.2734375 L 20.337891 5.0957031 L 20.160156 5.0351562 L 19.978516 5.0957031 L 19.857422 5.0351562 L 18.662109 4.9746094 z M 42.234375 4.9746094 C 41.949121 5.1916504 41.790771 5.4476318 41.759766 5.7421875 L 41.935547 5.9804688 L 41.996094 6.2773438 L 42.113281 6.515625 C 42.2125 6.8194824 42.310938 7.0552246 42.410156 7.2226562 C 42.500073 7.628833 42.598511 7.9638184 42.707031 8.2304688 L 42.824219 8.4082031 C 42.923437 8.6438476 42.98335 8.8601563 43.001953 9.0585938 C 43.119775 9.2353271 43.197974 9.4131104 43.238281 9.5898438 L 43.359375 9.7089844 L 43.359375 9.8867188 C 43.446191 10.094458 43.523584 10.252808 43.591797 10.361328 C 43.790234 11.000049 44.026782 11.512012 44.302734 11.896484 L 44.423828 11.957031 L 44.837891 11.896484 L 45.076172 11.896484 C 45.519556 11.896484 45.873975 11.877051 46.140625 11.839844 C 46.236743 11.6104 46.294702 11.411572 46.316406 11.244141 L 46.140625 10.890625 C 45.942188 10.565063 45.803271 10.288843 45.722656 10.0625 L 45.605469 9.8261719 L 45.369141 9.1152344 C 45.232715 8.8609863 45.135083 8.6454834 45.076172 8.46875 L 45.015625 8.2871094 L 44.837891 7.8730469 L 44.837891 7.6953125 L 44.716797 7.5195312 L 44.716797 7.3417969 C 44.608276 7.1433594 44.550317 6.94729 44.541016 6.7519531 C 44.482104 6.7023438 44.442432 6.641626 44.423828 6.5703125 C 44.194385 5.9501953 43.957837 5.457666 43.712891 5.0917969 L 43.535156 5.0351562 C 43.060767 5.1033691 42.628149 5.0831299 42.234375 4.9746094 z M 47.4375 5.0351562 C 47.220459 5.2304932 47.02439 5.3686035 46.847656 5.4492188 L 46.730469 5.6269531 L 46.730469 5.8027344 L 46.609375 5.9804688 L 46.554688 6.15625 L 46.433594 6.3378906 L 46.373047 6.515625 C 46.236621 6.7233642 46.138989 6.9396729 46.080078 7.1660156 L 45.958984 7.28125 C 45.909375 7.6068115 45.791504 7.8830322 45.605469 8.109375 L 45.666016 8.2871094 C 45.833447 8.544458 45.951318 8.7607666 46.019531 8.9375 L 46.019531 9.1152344 L 46.494141 10.179688 L 46.791016 10.654297 L 46.847656 10.416016 L 47.023438 10.0625 L 47.083984 9.9472656 C 47.242114 9.6589111 47.342505 9.402124 47.382812 9.1757812 L 47.498047 8.8828125 L 47.558594 8.7617188 C 47.667114 8.5756836 47.747266 8.3979004 47.796875 8.2304688 L 47.912109 8.0488281 L 48.033203 7.8730469 L 48.089844 7.6953125 C 48.179761 7.4286621 48.278198 7.2123535 48.386719 7.0449219 L 48.447266 6.8691406 L 48.683594 6.515625 L 49.037109 5.7421875 C 49.096021 5.1530762 48.563013 4.917334 47.4375 5.0351562 z M 51.619141 5.0449219 L 51.441406 5.1660156 C 51.029028 5.1071045 50.678174 5.1265381 50.386719 5.2226562 C 50.327808 5.4986084 50.247656 5.7141113 50.148438 5.8691406 L 50.208984 6.2226562 L 50.148438 6.3984375 C 50.207349 6.544165 50.227588 6.701709 50.208984 6.8691406 L 50.265625 9.6914062 C 50.147803 10.444849 50.147803 11.091357 50.265625 11.630859 C 51.068677 11.975024 51.735425 11.877393 52.265625 11.337891 C 52.274927 10.947217 52.235254 10.613843 52.148438 10.337891 L 52.148438 10.044922 L 52.148438 9.8671875 C 52.167041 9.504419 52.146802 9.1912842 52.087891 8.9277344 L 52.087891 8.28125 L 52.087891 8.1054688 L 52.087891 7.9277344 L 52.087891 7.7519531 L 52.087891 7.3984375 L 52.087891 7.2226562 L 52.087891 6.984375 C 52.069287 6.5843994 52.089526 6.251831 52.148438 5.9882812 L 52.148438 5.515625 L 52.087891 5.1054688 L 51.619141 5.0449219 z M 26.099609 5.0488281 C 23.786572 5.8704834 22.886841 7.3456544 23.398438 9.4726562 C 23.817017 10.855518 24.696509 11.696484 26.039062 11.994141 C 26.234399 11.839111 26.397119 11.696631 26.527344 11.566406 C 26.673071 10.704443 26.38811 10.149243 25.671875 9.9042969 L 25.425781 9.5371094 C 25.323462 9.2084473 25.261938 8.9226807 25.240234 8.6777344 C 25.280542 8.3273682 25.342065 8.0396484 25.425781 7.8164062 C 26.591602 7.0381592 26.897607 6.1154296 26.345703 5.0488281 L 26.099609 5.0488281 z M 9.6074219 6.1933594 C 9.4585938 6.4662109 9.3169189 6.686084 9.1835938 6.8535156 L 8.9472656 7.640625 L 8.765625 7.8222656 L 8.7050781 8.1191406 L 8.5839844 8.3007812 L 8.4628906 8.5429688 L 8.4023438 8.7246094 L 8.28125 8.90625 L 7.8027344 10.226562 C 7.5422852 10.648242 7.3823242 11.050269 7.3203125 11.431641 C 7.3823242 11.543262 7.4208496 11.642505 7.4394531 11.732422 L 7.5605469 11.792969 L 7.7421875 11.792969 C 8.28479 11.814673 8.7447754 11.875391 9.1230469 11.974609 L 9.3652344 11.853516 C 9.4830566 11.444238 9.6247315 11.123169 9.7890625 10.890625 C 10.350269 10.837915 10.871777 10.898633 11.355469 11.072266 C 11.491895 10.907935 11.612524 10.786499 11.714844 10.708984 L 11.714844 10.589844 C 11.649731 10.46582 11.609253 10.344385 11.59375 10.226562 C 11.426318 10.018823 11.327881 9.7989502 11.296875 9.5664062 L 11.054688 9.2636719 L 10.933594 9.3242188 C 10.64834 9.2312012 10.367749 9.2109619 10.091797 9.2636719 L 10.152344 9.0253906 C 10.335278 8.6347168 10.453955 8.2926025 10.509766 7.9980469 L 10.152344 7.4589844 L 10.152344 7.2167969 C 9.9570068 6.9005371 9.8558105 6.599707 9.8496094 6.3144531 L 9.6074219 6.1933594 z M 33.853516 7.4960938 L 33.732422 7.6171875 L 33.373047 7.9140625 C 33.314136 8.4721679 33.374854 8.9710205 33.554688 9.4082031 L 34.867188 9.2871094 L 35.048828 9.3476562 C 35.365088 8.7306397 35.423047 8.1535888 35.224609 7.6171875 C 34.69751 7.6450928 34.241089 7.6046143 33.853516 7.4960938 z M 52.972656 7.515625 C 52.333936 8.6132324 52.509766 9.1803955 53.501953 9.2207031 C 54.559253 9.3974365 54.852148 8.8687988 54.380859 7.6347656 C 54.22583 7.5758545 54.070239 7.5556152 53.912109 7.5742188 C 53.549341 7.602124 53.236206 7.5838379 52.972656 7.515625 z M 28.433594 9.1054688 C 28.219653 9.3411133 28.076367 9.5653565 28.001953 9.7792969 L 27.880859 9.8457031 C 27.493286 10.028638 27.18728 10.212402 26.960938 10.398438 C 26.805908 11.604565 27.091675 12.053052 27.820312 11.746094 C 28.803198 11.594165 29.519165 11.084155 29.96875 10.212891 L 29.96875 9.7792969 L 29.662109 9.5371094 C 29.333447 9.4533936 29.06792 9.3101074 28.863281 9.1054688 L 28.433594 9.1054688 z M 55.326172 9.8066406 L 55.148438 9.9277344 L 54.673828 9.9277344 L 54.501953 9.984375 L 54.265625 9.984375 L 54.087891 9.984375 L 52.912109 9.984375 C 52.874902 10.052588 52.835229 10.092261 52.794922 10.101562 C 52.491064 10.817798 52.550977 11.444873 52.972656 11.984375 L 53.148438 11.923828 L 53.380859 11.923828 L 53.558594 11.867188 L 53.734375 11.806641 L 53.972656 11.867188 L 54.148438 11.806641 L 54.326172 11.806641 L 55.265625 11.746094 C 55.71521 11.640674 55.89104 11.347778 55.794922 10.867188 C 55.912744 10.318384 55.757153 9.9647705 55.326172 9.8066406 z "
         d="m 55.185547,4.6445312 c -0.581349,0.1533419 0.05631,-0.1107614 -0.591797,0.1152344 a 0.28843286,0.28843286 0 0 0 -0.03516,-0.00391 h -0.177735 -0.175781 a 0.28843286,0.28843286 0 0 0 -0.132812,0.033203 l -0.05469,0.027344 h -0.105469 -0.763672 a 0.28843286,0.28843286 0 0 0 -0.203125,0.083984 C 52.680283,5.1641331 52.525167,5.4537522 52.4375,5.7539062 V 5.515625 a 0.28843286,0.28843286 0 0 0 -0.0039,-0.042969 L 52.373047,5.0625 A 0.28843286,0.28843286 0 0 0 52.125,4.8203125 l -0.46875,-0.060547 a 0.28843286,0.28843286 0 0 0 -0.199219,0.046875 l -0.121094,0.082031 C 50.957294,4.8508459 50.600006,4.84925 50.296875,4.9492187 A 0.28843286,0.28843286 0 0 0 50.105469,5.1621094 C 50.051308,5.4158089 49.97807,5.6006717 49.90625,5.7128906 a 0.28843286,0.28843286 0 0 0 -0.04297,0.2050781 l 0.04883,0.28125 -0.03711,0.1054688 a 0.28843286,0.28843286 0 0 0 0.0059,0.2011719 c 0.04044,0.1000459 0.05489,0.2071527 0.04102,0.3320312 a 0.28843286,0.28843286 0 0 0 -0.002,0.037109 l 0.05664,2.8183594 v 0.00391 c -0.113524,0.7558874 -0.11729,1.4232514 0.0078,1.9960934 a 0.28843286,0.28843286 0 0 0 0.167969,0.203125 c 0.859423,0.368325 1.684731,0.256152 2.285156,-0.330078 0.07025,0.209111 0.164464,0.411302 0.308594,0.595703 a 0.28843286,0.28843286 0 0 0 0.320312,0.0957 l 0.13086,-0.04492 h 0.183593 a 0.28843286,0.28843286 0 0 0 0.08789,-0.01367 l 0.177734,-0.05664 a 0.28843286,0.28843286 0 0 0 0.0059,-0.002 l 0.09375,-0.0332 0.15625,0.03906 a 0.28843286,0.28843286 0 0 0 0.164062,-0.0059 l 0.13086,-0.04492 h 0.128906 a 0.28843286,0.28843286 0 0 0 0.01758,-0.002 l 0.939453,-0.06055 a 0.28843286,0.28843286 0 0 0 0.04883,-0.0059 c 0.274455,-0.06435 0.514335,-0.205539 0.650391,-0.431641 0.125784,-0.209031 0.141719,-0.461191 0.09961,-0.722656 0.05486,-0.290636 0.05168,-0.562321 -0.05273,-0.798828 C 55.918108,9.8223709 55.696,9.6343012 55.425781,9.5351563 a 0.28843286,0.28843286 0 0 0 -0.261719,0.033203 l -0.105468,0.070312 h -0.384766 a 0.28843286,0.28843286 0 0 0 -0.08984,0.015625 l -0.128906,0.041016 h -0.189453 -0.177734 -1.175782 a 0.28843286,0.28843286 0 0 0 -0.253906,0.1503906 c -0.01845,0.033822 -0.02211,-0.00361 0.07227,-0.025391 a 0.28843286,0.28843286 0 0 0 -0.201172,0.1679688 c -0.04397,0.1036327 -0.06186,0.2056697 -0.0918,0.3085937 V 10.044922 9.8671875 l -0.002,0.015625 c 0.01944,-0.3790105 -0.0012,-0.7141333 -0.06641,-1.0097656 1.45e-4,4.086e-4 0.0018,-4.084e-4 0.002,0 l 0.0059,0.054687 v -0.046875 c 0.07318,0.1963134 0.212352,0.3689468 0.400391,0.4667969 0.195791,0.1018838 0.428823,0.1456257 0.695312,0.1582031 C 53.753951,9.5512326 54.00266,9.5578465 54.224609,9.5 54.451747,9.4408013 54.65539,9.2981522 54.767578,9.0957031 54.991954,8.690805 54.898037,8.1796917 54.650391,7.53125 A 0.28843286,0.28843286 0 0 0 54.482422,7.3652344 C 54.288,7.291354 54.082945,7.2631047 53.878906,7.2871094 53.684013,7.3014554 53.548624,7.2720086 53.392578,7.2578125 a 0.28843286,0.28843286 0 0 0 0.01367,-0.00586 l 0.03711,-0.035156 h 0.05859 a 0.28843286,0.28843286 0 0 0 0.08984,-0.015625 l 0.134765,-0.042969 h 0.185547 0.175782 0.238281 1.054687 a 0.28843286,0.28843286 0 0 0 0.203125,-0.083984 l 0.238282,-0.234375 a 0.28843286,0.28843286 0 0 0 0.07422,-0.1269531 C 56.05086,6.1571386 56.103124,5.7089174 56,5.3359375 55.896876,4.9629576 55.573875,4.694063 55.185547,4.6445312 Z m -43.46875,0.00195 c -0.481409,0.098602 -0.897433,0.096228 -1.255859,0.00391 a 0.28843286,0.28843286 0 0 0 -0.244141,0.046875 C 9.9247738,4.9124401 9.746262,5.235576 9.7421875,5.5859375 a 0.28843286,0.28843286 0 0 0 0.00977,0.074219 L 9.8125,5.9023437 9.8339844,5.984375 9.7363281,5.9355469 A 0.28843286,0.28843286 0 0 0 9.3535156,6.0546875 C 9.2103423,6.317172 9.0757312,6.524763 8.9570313,6.6738281 a 0.28843286,0.28843286 0 0 0 -0.048828,0.097656 L 8.6914063,7.4882812 8.5625,7.6191406 A 0.28843286,0.28843286 0 0 0 8.4824219,7.7636719 L 8.4335938,8.0058594 8.34375,8.140625 a 0.28843286,0.28843286 0 0 0 -0.017578,0.03125 L 8.2050781,8.4140625 a 0.28843286,0.28843286 0 0 0 -0.015625,0.037109 L 8.140625,8.5976563 8.0410156,8.7460938 a 0.28843286,0.28843286 0 0 0 -0.03125,0.0625 L 7.53125,10.128906 l 0.025391,-0.05469 c -0.2757724,0.446489 -0.4520162,0.883317 -0.5214844,1.310547 a 0.28843286,0.28843286 0 0 0 0.033203,0.1875 c 0.051394,0.09251 0.076762,0.164961 0.087891,0.21875 a 0.28843286,0.28843286 0 0 0 0.1542969,0.199218 l 0.1210937,0.06055 a 0.28843286,0.28843286 0 0 0 0.1289063,0.03125 h 0.1699218 c 0.527643,0.02111 0.9696106,0.07989 1.3203126,0.171875 a 0.28843286,0.28843286 0 0 0 0.2011718,-0.02148 l 0.2421875,-0.121094 a 0.28843286,0.28843286 0 0 0 0.1484375,-0.177734 c 0.096255,-0.334361 0.2133422,-0.563104 0.3300782,-0.753906 0.4608527,-0.02445 0.8892857,0.02196 1.2851567,0.164062 a 0.28843286,0.28843286 0 0 0 0.320312,-0.08789 c 0.12766,-0.153771 0.236824,-0.260556 0.310547,-0.316406 a 0.28843286,0.28843286 0 0 0 0.03711,-0.07422 c 0.112235,0.264046 0.194951,0.525026 0.226563,0.78125 a 0.28843286,0.28843286 0 0 0 0.167969,0.226563 c 0.650529,0.296281 1.174442,0.440332 1.625,0.376953 0.450557,-0.06338 0.792862,-0.413763 0.884765,-0.878906 a 0.28843286,0.28843286 0 0 0 -0.02539,-0.185547 l -0.103516,-0.207031 -0.05273,-0.265625 a 0.28843286,0.28843286 0 0 0 -0.06055,-0.126953 C 14.143922,10.046833 13.910803,9.4719652 13.871094,8.828125 A 0.28843286,0.28843286 0 0 0 13.806641,8.6621094 C 13.69018,8.5212736 13.60618,8.384588 13.550781,8.2558594 L 13.439453,7.8066406 a 0.28843286,0.28843286 0 0 0 -0.08008,-0.1386719 l -0.06836,-0.064453 -0.03516,-0.1113281 a 0.28843286,0.28843286 0 0 0 -0.002,-0.00391 l -0.06055,-0.1816406 a 0.28843286,0.28843286 0 0 0 -0.01563,-0.037109 L 13.126953,7.1679687 13.03125,6.8691406 V 6.7324219 a 0.28843286,0.28843286 0 0 0 -0.07813,-0.1582032 0.28843286,0.28843286 0 0 0 -0.0078,-0.072266 c -0.05577,-0.1274642 -0.0861,-0.2423978 -0.09766,-0.3417969 A 0.28843286,0.28843286 0 0 0 12.794922,6.0253906 C 12.626618,5.7903001 12.551713,5.5706501 12.546875,5.3457031 A 0.28843286,0.28843286 0 0 0 12.431641,5.1230469 C 12.245145,4.9809544 12.097561,4.8491765 11.984375,4.7304687 a 0.28843286,0.28843286 0 0 0 -0.267578,-0.083984 z m 20.839844,0.00391 a 0.28843286,0.28843286 0 0 0 -0.269532,0.109375 c -0.516638,-0.075213 -0.996354,-0.018099 -1.388672,0.2207031 a 0.28843286,0.28843286 0 0 0 -0.123046,0.1542969 l -0.121094,0.3574219 a 0.28843286,0.28843286 0 0 0 -0.0098,0.1484375 l 0.05078,0.2460937 -0.05273,0.3046875 a 0.28843286,0.28843286 0 0 0 0.0098,0.1308594 c 0.0037,0.012382 0.0015,0.00902 0,0.013672 a 0.28843286,0.28843286 0 0 0 -0.01367,0.085937 v 0.1757812 a 0.28843286,0.28843286 0 0 0 0.002,0.029297 c 0.02942,0.2942024 0.02778,0.532027 0.002,0.7050781 a 0.28843286,0.28843286 0 0 0 0.01172,0.1347657 l 0.04492,0.1367187 v 1.6230469 a 0.28843286,0.28843286 0 0 0 0.03125,0.1289063 l 0.01758,0.037109 -0.04492,0.2636719 a 0.28843286,0.28843286 0 0 0 0,0.089844 c 0.07637,0.5375352 0.05459,0.9932942 -0.05273,1.3730472 a 0.28843286,0.28843286 0 0 0 0.0098,0.183593 l 0.236328,0.595704 A 0.28843286,0.28843286 0 0 0 31.0625,12.0625 l 0.478516,0.181641 a 0.28843286,0.28843286 0 0 0 0.207031,-0.002 c 0.336848,-0.132531 0.636715,-0.161448 0.914062,-0.105469 a 0.28843286,0.28843286 0 0 0 0.320313,-0.164063 c 0.156072,-0.344659 0.261299,-0.66278 0.316406,-0.958984 a 0.28843286,0.28843286 0 0 0 -0.0098,-0.142578 c -0.09092,-0.275599 -0.119492,-0.498439 -0.103515,-0.658203 a 0.28843286,0.28843286 0 0 0 0.002,-0.0293 V 9.9433594 9.5839844 9.2871094 9.1289063 c 0.03327,0.1297686 0.04936,0.266523 0.09961,0.3886718 a 0.28843286,0.28843286 0 0 0 0.294922,0.1777344 l 1.251953,-0.1152344 0.123047,0.041016 a 0.28843286,0.28843286 0 0 0 0.347656,-0.1425782 c 0.146724,-0.2862547 0.219781,-0.5718767 0.265625,-0.8554687 0.0085,0.1255942 0.003,0.2587751 0.02539,0.3769531 l -0.04492,0.1328125 a 0.28843286,0.28843286 0 0 0 -0.01563,0.09375 v 0.5996094 l 0.002,-0.019531 c -0.05038,0.7178664 -0.05262,1.3076574 0,1.7812504 a 0.28843286,0.28843286 0 0 0 0.140625,0.216797 c 0.03757,0.0222 0.004,0.03104 -0.01758,-0.0625 a 0.28843286,0.28843286 0 0 0 0.181641,0.207031 c 0.198696,0.0726 0.406789,0.100236 0.611328,0.07617 l -0.0332,0.002 h 0.236328 l -0.06836,-0.0098 c 0.388242,0.09461 0.734002,0.139115 1.041015,0.125 a 0.28843286,0.28843286 0 0 0 0.212891,-0.109375 l 0.236328,-0.296875 a 0.28843286,0.28843286 0 0 0 0.05859,-0.130859 l 0.06055,-0.359375 a 0.28843286,0.28843286 0 0 0 0.0039,-0.04883 v -0.296875 a 0.28843286,0.28843286 0 0 0 -0.0098,-0.07617 c -0.07435,-0.27453 -0.106317,-0.504446 -0.107422,-0.689453 L 38.136719,9.8125 a 0.28843286,0.28843286 0 0 0 0.002,-0.076172 c -0.04712,-0.4623268 -0.02602,-0.8474246 0.05273,-1.1542968 a 0.28843286,0.28843286 0 0 0 0.0098,-0.072266 V 8.3339844 A 0.28843286,0.28843286 0 0 0 38.150391,8.171875 c -0.01357,-0.019827 -0.0098,-0.020274 -0.0098,-0.019531 V 7.5566406 A 0.28843286,0.28843286 0 0 0 38.126953,7.46875 l -0.03125,-0.091797 0.0293,-0.085937 a 0.28843286,0.28843286 0 0 0 0.01563,-0.091797 V 7.0175781 6.5429687 a 0.28843286,0.28843286 0 0 0 -0.002,-0.021484 c -0.02605,-0.3357818 -0.0065,-0.6267488 0.05273,-0.8691407 A 0.28843286,0.28843286 0 0 0 38.1875,5.5 C 38.096745,5.1998084 37.95782,4.9416454 37.765625,4.734375 A 0.28843286,0.28843286 0 0 0 37.464844,4.65625 c -0.432396,0.1431956 -0.826559,0.1572263 -1.207032,0.054687 a 0.28843286,0.28843286 0 0 0 -0.214843,0.027344 l -0.419922,0.2363282 a 0.28843286,0.28843286 0 0 0 -0.132813,0.1601562 l -0.06055,0.1816406 a 0.28843286,0.28843286 0 0 0 -0.01563,0.091797 v 1.4316406 a 0.28843286,0.28843286 0 0 0 0.0059,0.056641 l 0.05664,0.2792968 0.02344,0.390625 c -0.0054,-0.015731 -6.8e-5,-0.033172 -0.0059,-0.048828 a 0.28843286,0.28843286 0 0 0 -0.285157,-0.1875 C 34.705366,7.3567403 34.280533,7.3164398 33.931641,7.21875 a 0.28843286,0.28843286 0 0 0 -0.28125,0.074219 l -0.111329,0.1113282 -0.349609,0.2871093 a 0.28843286,0.28843286 0 0 0 -0.002,0.00391 V 7.5566406 7.375 7.1386719 a 0.28843286,0.28843286 0 0 0 -0.01563,-0.091797 0.28843286,0.28843286 0 0 0 0.01172,-0.1230469 l -0.05664,-0.4589844 v -0.15625 c 0.01797,-0.2654968 0.0551,-0.4832368 0.103516,-0.6386718 a 0.28843286,0.28843286 0 0 0 0.0098,-0.1308594 l -0.05664,-0.3574219 a 0.28843286,0.28843286 0 0 0 -0.0625,-0.1386719 C 32.964224,4.8524848 32.77612,4.7098329 32.556641,4.6503906 Z m 6.779296,0 a 0.28843286,0.28843286 0 0 0 -0.27539,0.078125 l -0.28711,0.2929688 a 0.28843286,0.28843286 0 0 0 -0.08398,0.2011718 v 0.171875 c 0,0.2389421 -0.01908,0.4344448 -0.05273,0.5820313 a 0.28843286,0.28843286 0 0 0 -0.002,0.1210937 c 0.03338,0.1669069 0.03354,0.3170954 0.002,0.4628907 a 0.28843286,0.28843286 0 0 0 -0.002,0.1191406 l 0.04687,0.2265625 -0.04297,0.1679687 a 0.28843286,0.28843286 0 0 0 -0.0098,0.072266 v 1.6386719 a 0.28843286,0.28843286 0 0 0 0.01758,0.095703 l 0.04297,0.125 v 1.4101566 c 0,0.278103 -0.02009,0.495553 -0.05273,0.638672 a 0.28843286,0.28843286 0 0 0 -0.002,0.113281 l 0.06055,0.349609 a 0.28843286,0.28843286 0 0 0 0.01953,0.06836 c 0.09552,0.214925 0.203351,0.396558 0.33789,0.542968 a 0.28843286,0.28843286 0 0 0 0.212891,0.09375 h 0.128906 l 0.13086,0.04492 a 0.28843286,0.28843286 0 0 0 0.216796,-0.01172 c 0.256619,-0.120611 0.518199,-0.153381 0.814454,-0.0957 a 0.28843286,0.28843286 0 0 0 0.332031,-0.207031 c 0.08261,-0.297965 0.175785,-0.528802 0.267578,-0.691406 a 0.28843286,0.28843286 0 0 0 0.03711,-0.142578 v -0.410157 a 0.28843286,0.28843286 0 0 0 -0.0059,-0.05859 l -0.05859,-0.283203 -0.04492,-0.3125 0.01953,-0.03906 a 0.28843286,0.28843286 0 0 0 -0.01563,-0.2792969 c -0.01581,-0.025038 -0.01172,-0.026 -0.01172,-0.021484 V 9.0175781 A 0.28843286,0.28843286 0 0 0 41.0625,8.9296875 c -0.0305,-0.096205 -0.04087,-0.1749338 -0.04297,-0.2441406 l 0.04687,-0.1816406 a 0.28843286,0.28843286 0 0 0 0.0098,-0.072266 V 8.1992188 7.5566406 7.3242187 7.0859375 6.8535156 6.6816406 6.4453125 c 0,-0.1745847 -0.02667,-0.319 -0.0625,-0.4589844 C 41.052854,5.6120902 41.056591,5.2830386 41.011719,5 A 0.28843286,0.28843286 0 0 0 40.849609,4.7851562 L 40.734375,4.7304687 A 0.28843286,0.28843286 0 0 0 40.580078,4.703125 c -0.489371,0.053064 -0.905556,0.0326 -1.244141,-0.052734 z m -11.740234,0.00195 a 0.28843286,0.28843286 0 0 0 -0.298828,0.087891 C 27.063137,5.0092849 26.899863,5.2961673 26.816406,5.5859375 26.768056,5.363324 26.717209,5.1395124 26.601562,4.9160156 a 0.28843286,0.28843286 0 0 0 -0.255859,-0.15625 h -0.246094 a 0.28843286,0.28843286 0 0 0 -0.0957,0.017578 c -1.196704,0.4251029 -2.065629,1.0329764 -2.560547,1.84375 -0.494917,0.8107737 -0.594505,1.8043062 -0.326172,2.9199219 a 0.28843286,0.28843286 0 0 0 0.0059,0.015625 c 0.441639,1.4590454 1.424876,2.4020064 2.853515,2.7187504 a 0.28843286,0.28843286 0 0 0 0.242188,-0.05469 c 0.201646,-0.160037 0.370928,-0.310381 0.511719,-0.451172 a 0.28843286,0.28843286 0 0 0 0.05078,-0.09375 c 0.01737,0.03576 0.01381,0.08565 0.03516,0.119141 0.109385,0.171568 0.297899,0.297927 0.5,0.326172 0.202101,0.02824 0.403704,-0.02026 0.615235,-0.109375 l -0.06641,0.01953 c 1.058286,-0.163584 1.873605,-0.744158 2.359375,-1.685547 a 0.28843286,0.28843286 0 0 0 0.0332,-0.132812 V 9.7792969 A 0.28843286,0.28843286 0 0 0 30.148437,9.5527344 L 29.841797,9.3105469 A 0.28843286,0.28843286 0 0 0 29.732422,9.2578125 C 29.444034,9.1843553 29.230439,9.0663762 29.066406,8.9023438 a 0.28843286,0.28843286 0 0 0 -0.203125,-0.085937 h -0.429687 a 0.28843286,0.28843286 0 0 0 -0.212891,0.095703 C 28.027425,9.1249952 27.909508,9.3377019 27.8125,9.5546875 l -0.07031,0.039063 c -0.3931,0.1868037 -0.716035,0.3775295 -0.964843,0.582031 a 0.28843286,0.28843286 0 0 0 -0.101563,0.185547 c -1.91e-4,0.0015 1.91e-4,0.0024 0,0.0039 C 26.514207,10.055161 26.226266,9.8366286 25.876953,9.6914063 L 25.693359,9.4179688 c -0.08712,-0.2864313 -0.139931,-0.5330286 -0.160156,-0.7363282 0.03581,-0.2951379 0.08808,-0.5292231 0.150391,-0.7089844 0.554606,-0.3928639 0.950448,-0.8339963 1.11914,-1.3417968 0.02152,-0.064781 0.0054,-0.1351013 0.01953,-0.2011719 0.0038,0.012866 -0.0042,0.026231 0,0.039063 0.187089,0.5749123 0.694114,1.0680615 1.46289,1.5332031 a 0.28843286,0.28843286 0 0 0 0.148438,0.042969 h 0.36914 a 0.28843286,0.28843286 0 0 0 0.169922,-0.056641 c 0.298665,-0.2192035 0.58111,-0.3144531 0.875,-0.3144531 A 0.28843286,0.28843286 0 0 0 30.126953,7.453125 c 0.119052,-0.4894371 0.145924,-0.9426246 0.06445,-1.3535156 A 0.28843286,0.28843286 0 0 0 29.998047,5.8828125 l -0.04687,-0.015625 -0.01563,-0.046875 A 0.28843286,0.28843286 0 0 0 29.791016,5.6523437 l -0.08203,-0.041016 -0.0918,-0.089844 A 0.28843286,0.28843286 0 0 0 29.589844,5.5 C 29.258562,5.2477397 28.99961,5.0269533 28.818359,4.8457031 A 0.28843286,0.28843286 0 0 0 28.607422,4.7597656 C 28.2115,4.7714967 27.874744,4.7344146 27.595703,4.6523437 Z M 17.496094,4.6875 c -0.512113,0.056901 -0.946524,0.0558 -1.300782,0.00195 A 0.28843286,0.28843286 0 0 0 15.925781,4.796875 c -0.191801,0.2447113 -0.330568,0.4664685 -0.40625,0.6855469 a 0.28843286,0.28843286 0 0 0 -0.0098,0.1445312 c 0.05595,0.3121699 0.07237,0.5677614 0.05664,0.7617188 a 0.28843286,0.28843286 0 0 0 -0.002,0.023437 v 0.4179687 l 0.002,-0.025391 c -0.03905,0.4536288 -0.03618,0.8394286 0,1.1816406 l -0.05273,0.2070313 a 0.28843286,0.28843286 0 0 0 -0.0098,0.064453 c -0.0087,0.3824494 -0.0076,0.6905631 0,0.9570313 l -0.0293,0.058594 a 0.28843286,0.28843286 0 0 0 -0.02344,0.1894531 c 0.05479,0.2595097 0.06947,0.471276 0.05469,0.6289064 -0.07279,0.694305 -0.07555,1.272937 0.002,1.748047 a 0.28843286,0.28843286 0 0 0 0.169921,0.21875 c 0.219851,0.09516 0.415078,0.162357 0.595703,0.199219 A 0.28843286,0.28843286 0 0 0 16.417969,12.25 c 0.422594,-0.13206 0.788125,-0.18615 1.09375,-0.169922 a 0.28843286,0.28843286 0 0 0 0.08594,-0.0078 c 0.238723,-0.06085 0.44627,-0.264425 0.507813,-0.50586 a 0.28843286,0.28843286 0 0 0 0.0039,-0.01367 l 0.06055,-0.298828 A 0.28843286,0.28843286 0 0 0 18.166016,11.125 c -0.05579,-0.21728 -0.09323,-0.422366 -0.113282,-0.617187 a 0.28843286,0.28843286 0 0 0 -0.0078,-0.04297 l -0.04883,-0.19336 c 0.04292,-0.299746 0.06802,-0.5784406 0.05859,-0.8203121 V 9.28125 a 0.28843286,0.28843286 0 0 0 -0.002,-0.021484 L 17.998047,8.5625 l 0.02539,-0.048828 a 0.28843286,0.28843286 0 0 0 0.02734,-0.171875 c -0.03662,-0.2450937 -0.03437,-0.4520593 -0.002,-0.6191407 a 0.28843286,0.28843286 0 0 0 0.0059,-0.054687 V 7.1894531 7.0078125 6.3945312 c 0.08079,0.1709446 0.186767,0.3397727 0.328125,0.5039063 A 0.28843286,0.28843286 0 0 0 18.591797,7 c 0.381763,0.013634 0.637965,0.069232 0.890625,0.125 -0.03738,0.1141127 -0.05815,0.2791788 -0.115235,0.3242187 -0.100743,0.079486 -0.27177,0.1206293 -0.583984,0.054687 a 0.28843286,0.28843286 0 0 0 -0.324219,0.1640625 c -0.01733,0.038661 -0.01283,0.026719 -0.01953,0.029297 a 0.28843286,0.28843286 0 0 0 -0.181641,0.2304688 l -0.05664,0.4179687 a 0.28843286,0.28843286 0 0 0 -0.0039,0.039063 v 0.1816407 l 0.01953,-0.1035157 c -0.127301,0.3288617 -0.173971,0.6763002 -0.138672,1.0292969 a 0.28843286,0.28843286 0 0 0 0.04492,0.1269531 c 0.147699,0.2297526 0.298177,0.4231764 0.457031,0.5820314 l -0.0098,-0.0078 c 0.213048,0.233201 0.353626,0.446739 0.425782,0.63086 a 0.28843286,0.28843286 0 0 0 0.08398,0.117187 c 0.358146,0.295112 0.603396,0.614564 0.753906,0.964844 a 0.28843286,0.28843286 0 0 0 0.160157,0.15625 c 0.343969,0.134148 0.711588,0.153531 1.074218,0.07617 0.22194,0.08916 0.446358,0.161826 0.664063,0.126953 0.263217,-0.04216 0.49911,-0.191396 0.68164,-0.40625 a 0.28843286,0.28843286 0 0 0 0.05664,-0.263672 C 22.395687,11.32499 22.310958,11.09167 22.214844,10.892578 a 0.28843286,0.28843286 0 0 0 -0.06445,-0.08789 c -0.146764,-0.135475 -0.248067,-0.258446 -0.310547,-0.359375 a 0.28843286,0.28843286 0 0 0 -0.08203,-0.08594 C 21.355573,10.08269 21.102157,9.7506063 20.925781,9.3789063 21.031099,9.3400084 21.13698,9.2775293 21.246094,9.2734375 A 0.28843286,0.28843286 0 0 0 21.46875,9.1523438 c 0.624012,-0.8769016 0.872464,-1.8246791 0.710937,-2.7871094 a 0.28843286,0.28843286 0 0 0 -0.08203,-0.15625 L 21.986328,6.0976562 C 21.759145,5.6742697 21.522229,5.3209071 21.257812,5.0664062 A 0.28843286,0.28843286 0 0 0 21.126953,4.9941406 L 20.419922,4.8183594 20.253906,4.7617187 a 0.28843286,0.28843286 0 0 0 -0.185547,0 L 20,4.7851562 19.986328,4.7773437 A 0.28843286,0.28843286 0 0 0 19.871094,4.7480469 L 18.675781,4.6875 a 0.28843286,0.28843286 0 0 0 -0.201172,0.066406 c -0.154941,0.1316599 -0.273901,0.2802342 -0.36914,0.4355469 -0.05435,-0.093597 -0.104632,-0.183294 -0.13086,-0.2539062 A 0.28843286,0.28843286 0 0 0 17.798828,4.7617187 l -0.177734,-0.060547 a 0.28843286,0.28843286 0 0 0 -0.125,-0.013672 z m 24.814453,0.00977 a 0.28843286,0.28843286 0 0 0 -0.25,0.046875 c -0.331287,0.2520661 -0.548005,0.5898264 -0.587891,0.96875 a 0.28843286,0.28843286 0 0 0 0.05469,0.2011719 l 0.138672,0.1855469 0.04687,0.2363281 a 0.28843286,0.28843286 0 0 0 0.02344,0.068359 l 0.117188,0.2382812 -0.01367,-0.037109 c 0.0941,0.2881863 0.190135,0.5081981 0.294922,0.6972657 0.09104,0.4076062 0.189308,0.7536045 0.304687,1.0371094 a 0.28843286,0.28843286 0 0 0 0.02734,0.048828 l 0.0957,0.1445312 c 0.08674,0.2092598 0.137658,0.3960836 0.152344,0.5527344 a 0.28843286,0.28843286 0 0 0 0.04687,0.1328125 c 0.100976,0.151464 0.163663,0.2967758 0.195312,0.4355469 a 0.28843286,0.28843286 0 0 0 0.07813,0.140625 l 0.03516,0.035156 v 0.056641 a 0.28843286,0.28843286 0 0 0 0.02344,0.1113281 c 0.08175,0.1956121 0.155393,0.3425811 0.230469,0.4687501 0.203405,0.649225 0.446291,1.182676 0.74414,1.597656 a 0.28843286,0.28843286 0 0 0 0.105469,0.08984 l 0.121094,0.06055 a 0.28843286,0.28843286 0 0 0 0.169922,0.02734 l 0.394531,-0.05664 h 0.216797 c 0.451811,0 0.815836,-0.02041 1.103515,-0.06055 a 0.28843286,0.28843286 0 0 0 0.226563,-0.173828 c 0.103096,-0.246101 0.168936,-0.466444 0.195312,-0.669922 a 0.28843286,0.28843286 0 0 0 -0.02734,-0.166016 l -0.175782,-0.353515 a 0.28843286,0.28843286 0 0 0 -0.01172,-0.02149 C 46.194881,10.425499 46.064503,10.162399 45.994141,9.9648438 a 0.28843286,0.28843286 0 0 0 -0.01367,-0.03125 L 45.873047,9.7167969 45.642578,9.0234375 a 0.28843286,0.28843286 0 0 0 -0.01953,-0.044922 C 45.491619,8.7335825 45.400533,8.5297236 45.349609,8.3769531 l -0.06055,-0.1816406 a 0.28843286,0.28843286 0 0 0 -0.0078,-0.021484 L 45.126953,7.8144531 V 7.6953125 A 0.28843286,0.28843286 0 0 0 45.076172,7.53125 L 45.005859,7.4296875 V 7.3417969 A 0.28843286,0.28843286 0 0 0 44.970703,7.203125 C 44.879813,7.0369272 44.835155,6.8859209 44.828125,6.7382812 A 0.28843286,0.28843286 0 0 0 44.726562,6.53125 c -0.01902,-0.016017 -0.02002,-0.020101 -0.02344,-0.033203 a 0.28843286,0.28843286 0 0 0 -0.0098,-0.027344 C 44.458776,5.8366943 44.216885,5.3256113 43.953125,4.9316406 A 0.28843286,0.28843286 0 0 0 43.800781,4.8164062 L 43.623047,4.7597656 A 0.28843286,0.28843286 0 0 0 43.494141,4.75 c -0.441984,0.063553 -0.833126,0.043851 -1.183594,-0.052734 z m 5.880859,0.025391 c -0.873911,0.041567 -0.45095,-0.1199779 -0.947265,0.097656 -0.504403,0.4410401 -0.26226,0.1370152 -0.636719,0.4707031 -0.249808,0.3667236 -0.101485,0.3579972 -0.236328,0.5273438 -0.05024,0.15343 -0.295731,0.5625127 -0.210938,0.4257812 -0.04099,0.2378205 -0.409446,1.1346366 -0.3125,0.7441406 l -0.08789,0.083984 a 0.28843286,0.28843286 0 0 0 -0.08594,0.1660156 c -0.04302,0.282322 -0.14012,0.5039106 -0.291016,0.6875 a 0.28843286,0.28843286 0 0 0 -0.05078,0.2773438 l 0.06055,0.1777344 a 0.28843286,0.28843286 0 0 0 0.03125,0.064453 c 0.15136,0.232647 0.247666,0.4165505 0.306641,0.5605469 v 0.109375 a 0.28843286,0.28843286 0 0 0 0.02539,0.1171875 l 0.47461,1.0644531 a 0.28843286,0.28843286 0 0 0 0.01953,0.03516 l 0.296875,0.47461 a 0.28843286,0.28843286 0 0 0 0.525391,-0.08594 l 0.04883,-0.205078 0.158203,-0.322266 0.06055,-0.111328 -0.0039,0.0039 C 47.504032,9.7794118 47.617818,9.4972146 47.666016,9.2265625 L 47.650391,9.28125 47.761719,9 l 0.04687,-0.09375 0.0078,-0.015625 c 0.09887,-0.1714648 0.168723,-0.3392004 0.22461,-0.5058594 l 0.0039,-0.00391 0.107422,-0.1738281 0.11914,-0.1699219 a 0.28843286,0.28843286 0 0 0 0.03711,-0.076172 l 0.05469,-0.1738281 0.002,-0.00391 c 0.08415,-0.2485592 0.174131,-0.4438827 0.263672,-0.5820312 a 0.28843286,0.28843286 0 0 0 0.03125,-0.0625 l 0.04687,-0.140625 0.216797,-0.3222657 a 0.28843286,0.28843286 0 0 0 0.02148,-0.041016 l 0.353516,-0.7734375 a 0.28843286,0.28843286 0 0 0 0.02539,-0.089844 C 49.343421,5.5794661 49.314694,5.386155 49.220703,5.2226562 49.126713,5.0591575 48.974557,4.93706 48.798828,4.859375 48.6231,4.78169 48.421717,4.7387879 48.191406,4.7226562 Z m 4.21875,1.6738282 c 0.05859,0.2889868 0.174166,0.574096 0.396485,0.8359375 a 0.28843286,0.28843286 0 0 0 0.117187,0.054687 0.28843286,0.28843286 0 0 0 -0.201172,0.083984 c -0.160602,0.275986 -0.275891,0.5247824 -0.345703,0.7597657 V 8.1054688 7.9277344 7.7519531 7.3984375 7.2226562 6.984375 a 0.28843286,0.28843286 0 0 0 0,-0.013672 c -0.01112,-0.2389934 0.01629,-0.3944942 0.0332,-0.5742187 z m -39.49414,0.1054687 c 0.0098,0.013021 0.0319,0.05599 0.0332,0.064453 a 0.28843286,0.28843286 0 0 0 -0.0332,-0.064453 z m -2.611328,0.2890625 0.417968,0.8300781 c 0.09125,0.30016 0.147288,0.5596226 0.166016,0.7656251 a 0.28843286,0.28843286 0 0 0 0.04687,0.1347656 l 0.09375,0.1386719 0.04492,0.1933593 a 0.28843286,0.28843286 0 0 0 0.04883,0.1035157 c 0.01447,0.01964 0.0054,0.00372 0.0059,-0.00586 a 0.28843286,0.28843286 0 0 0 0.0293,0.1054687 0.28843286,0.28843286 0 0 0 -0.232422,-0.050781 l -0.06641,0.033203 C 10.726623,9.0070363 10.59412,9.0145406 10.460938,9.0097656 10.61319,8.6645607 10.738672,8.3373455 10.792969,8.0507813 A 0.28843286,0.28843286 0 0 0 10.75,7.8378906 L 10.441406,7.3710937 V 7.2167969 a 0.28843286,0.28843286 0 0 0 -0.04297,-0.1523438 c -0.06357,-0.1029234 -0.0544,-0.1791096 -0.09375,-0.2734375 z m 42.11914,3.4609374 0.0098,0.05859 c -5.62e-4,0.002 -0.0014,0.0039 -0.002,0.0059 -0.0054,-0.01893 -0.002,-0.04586 -0.0078,-0.06445 z" /><path
         id="text4"
         style="font-style:normal;font-variant:normal;font-weight:normal;font-stretch:normal;font-size:9.525px;line-height:1;font-family:'Know Your Product';-inkscape-font-specification:'Know Your Product';letter-spacing:0px;writing-mode:lr-tb;direction:ltr;mix-blend-mode:normal;fill:none;fill-opacity:1;stroke:#323232;stroke-width:0.865001;stroke-linecap:butt;stroke-linejoin:bevel;stroke-dasharray:none;stroke-opacity:1;paint-order:stroke fill markers"
         sodipodi:type="inkscape:offset"
         inkscape:radius="0.21484892"
         inkscape:original="M 10.052734 5.2851562 C 9.8170899 5.4587891 9.69646 5.6786621 9.6933594 5.9453125 L 9.7539062 6.1875 L 9.8144531 6.4296875 L 10.113281 6.7910156 L 10.65625 7.875 C 10.755469 8.1974609 10.816187 8.4780518 10.837891 8.7167969 L 10.958984 8.8984375 L 11.019531 9.140625 C 11.062939 9.1995361 11.083179 9.2602539 11.080078 9.3222656 C 11.188599 9.4772949 11.246558 9.6364502 11.255859 9.8007812 L 11.498047 10.164062 L 11.558594 10.527344 C 11.862451 11.011035 12.044604 11.49126 12.103516 11.96875 C 13.356152 12.539258 14.057056 12.438867 14.208984 11.669922 L 14.089844 11.429688 L 14.029297 11.126953 C 13.551807 10.547144 13.291455 9.9050049 13.248047 9.2011719 C 13.114722 9.0399414 13.013525 8.8780273 12.945312 8.7167969 L 12.824219 8.234375 L 12.703125 8.1171875 L 12.642578 7.9355469 L 12.582031 7.7539062 L 12.521484 7.6328125 L 12.40625 7.2714844 L 12.40625 7.0898438 C 12.356641 7.0526367 12.336401 7.0129639 12.345703 6.9726562 C 12.280591 6.8238281 12.240112 6.6841064 12.224609 6.5507812 C 12.029272 6.2779297 11.928076 5.9973389 11.921875 5.7089844 C 11.726538 5.5601563 11.564624 5.4184814 11.4375 5.2851562 C 10.922803 5.3905762 10.462012 5.3905762 10.052734 5.2851562 z M 27.175781 5.2851562 C 26.313818 6.2773437 26.621777 7.2203125 28.097656 8.1132812 L 28.464844 8.1132812 C 28.802808 7.8652344 29.152051 7.7402344 29.511719 7.7402344 C 29.62334 7.2813477 29.643579 6.8733398 29.572266 6.5136719 L 29.384766 6.453125 L 29.326172 6.265625 L 29.205078 6.2050781 L 29.078125 6.0859375 C 28.740161 5.8285889 28.474634 5.6015869 28.279297 5.40625 C 27.860718 5.4186523 27.492041 5.3781738 27.175781 5.2851562 z M 32.144531 5.2851562 C 32.104224 5.3533691 32.063745 5.3938477 32.023438 5.40625 C 31.50564 5.3070313 31.067505 5.3649902 30.710938 5.5820312 L 30.589844 5.9414062 L 30.650391 6.2382812 L 30.589844 6.5957031 C 30.608447 6.6577148 30.608447 6.7184326 30.589844 6.7773438 L 30.589844 6.9550781 C 30.62085 7.2651367 30.62085 7.5227295 30.589844 7.7304688 L 30.650391 7.9121094 L 30.650391 9.5820312 L 30.710938 9.703125 L 30.650391 10.060547 C 30.731006 10.627954 30.710767 11.126807 30.589844 11.554688 L 30.828125 12.150391 L 31.306641 12.332031 C 31.684912 12.183203 32.042896 12.142725 32.380859 12.210938 C 32.529687 11.882275 32.628125 11.583057 32.677734 11.316406 C 32.578516 11.015649 32.540796 10.758057 32.5625 10.541016 L 32.5625 10.298828 L 32.5625 9.9414062 L 32.5625 9.6425781 L 32.5625 9.2851562 L 32.5625 9.046875 L 32.5625 8.3925781 L 32.5625 8.1503906 L 32.5625 7.9121094 L 32.5625 7.7304688 L 32.5625 7.4941406 C 32.540796 7.4352295 32.540796 7.3772705 32.5625 7.3183594 L 32.501953 6.8378906 L 32.501953 6.65625 C 32.520557 6.3678955 32.558276 6.130542 32.617188 5.9414062 L 32.5625 5.5820312 C 32.432275 5.4239014 32.293359 5.3254639 32.144531 5.2851562 z M 37.216797 5.2851562 C 36.739307 5.4432861 36.282886 5.4635254 35.845703 5.3457031 L 35.427734 5.5820312 L 35.367188 5.7636719 L 35.367188 7.1972656 L 35.427734 7.4941406 L 35.488281 8.5078125 C 35.466577 8.8364746 35.486816 9.136499 35.548828 9.40625 L 35.488281 9.5820312 L 35.488281 10.181641 C 35.438672 10.888574 35.438672 11.465625 35.488281 11.912109 C 35.556494 11.952417 35.594214 11.992896 35.603516 12.033203 C 35.764746 12.092114 35.923901 12.112354 36.082031 12.09375 L 36.320312 12.09375 C 36.689282 12.183667 37.007593 12.22334 37.277344 12.210938 L 37.515625 11.912109 L 37.576172 11.554688 L 37.576172 11.255859 C 37.495557 10.958203 37.455078 10.70061 37.455078 10.480469 L 37.515625 10.121094 C 37.466016 9.6343018 37.486255 9.2175537 37.576172 8.8671875 L 37.576172 8.6894531 C 37.535864 8.630542 37.515625 8.5698242 37.515625 8.5078125 L 37.515625 7.9121094 L 37.455078 7.7304688 L 37.515625 7.5546875 L 37.515625 7.3730469 L 37.515625 6.8984375 C 37.48772 6.5387695 37.507959 6.220459 37.576172 5.9414062 C 37.495557 5.6747559 37.374927 5.4556885 37.216797 5.2851562 z M 38.929688 5.2851562 L 38.640625 5.578125 L 38.640625 5.75 C 38.640625 6.004248 38.620386 6.219751 38.580078 6.3964844 C 38.620386 6.5980225 38.620386 6.7924805 38.580078 6.9785156 L 38.640625 7.2714844 L 38.580078 7.5039062 L 38.580078 9.140625 L 38.640625 9.3125 L 38.640625 10.773438 C 38.640625 11.064893 38.620386 11.297876 38.580078 11.474609 L 38.640625 11.824219 C 38.727441 12.019556 38.824268 12.174341 38.929688 12.289062 L 39.105469 12.289062 L 39.283203 12.349609 C 39.593262 12.203882 39.923071 12.166162 40.273438 12.234375 C 40.360254 11.921216 40.457886 11.666846 40.566406 11.474609 L 40.566406 11.066406 L 40.505859 10.773438 L 40.449219 10.363281 L 40.505859 10.248047 C 40.468652 10.189136 40.449219 10.129224 40.449219 10.070312 L 40.449219 9.3730469 C 40.408911 9.2459229 40.390625 9.1280518 40.390625 9.0195312 L 40.449219 8.7871094 L 40.449219 8.5546875 L 40.449219 7.9121094 L 40.449219 7.6796875 L 40.449219 7.4433594 L 40.449219 7.2109375 L 40.449219 7.0390625 L 40.449219 6.8007812 C 40.449219 6.6085449 40.430933 6.4537598 40.390625 6.3359375 C 40.430933 5.9669678 40.430933 5.6546387 40.390625 5.4003906 L 40.273438 5.3457031 C 39.75874 5.4015137 39.31106 5.3812744 38.929688 5.2851562 z M 54.8125 5.2851562 C 54.65437 5.3626709 54.496021 5.3829102 54.337891 5.3457031 C 54.300684 5.3922119 54.261011 5.4096924 54.220703 5.4003906 L 54.044922 5.4003906 L 53.867188 5.4003906 L 53.751953 5.4609375 L 53.574219 5.4609375 L 52.8125 5.4609375 C 52.173779 6.0965576 52.133301 6.7430664 52.691406 7.4003906 L 52.867188 7.4003906 L 52.988281 7.2851562 L 53.166016 7.2851562 L 53.341797 7.2246094 L 53.574219 7.2246094 L 53.751953 7.2246094 L 53.988281 7.2246094 L 55.044922 7.2246094 L 55.28125 6.9921875 C 55.575806 5.9317872 55.420215 5.3626709 54.8125 5.2851562 z M 15.814453 5.3320312 C 15.634619 5.5614746 15.515942 5.7611084 15.457031 5.9316406 C 15.515942 6.2603027 15.536182 6.5400879 15.517578 6.7695312 L 15.517578 7.1875 C 15.477271 7.6556885 15.477271 8.0541504 15.517578 8.3828125 L 15.457031 8.6191406 C 15.447729 9.028418 15.447729 9.3689209 15.457031 9.6386719 L 15.396484 9.7597656 C 15.455396 10.038818 15.475635 10.276172 15.457031 10.474609 C 15.385718 11.153638 15.385718 11.713208 15.457031 12.150391 C 15.66477 12.240308 15.844165 12.301025 15.996094 12.332031 C 16.442578 12.192505 16.84104 12.131787 17.191406 12.150391 C 17.349536 12.110083 17.447974 12.009692 17.488281 11.851562 L 17.548828 11.554688 C 17.489917 11.325244 17.449438 11.105371 17.427734 10.894531 L 17.367188 10.65625 C 17.416797 10.33689 17.437036 10.059058 17.427734 9.8203125 L 17.427734 9.6386719 L 17.367188 8.8613281 L 17.427734 8.7402344 C 17.387427 8.4704834 17.387427 8.2331299 17.427734 8.0253906 L 17.427734 7.5449219 L 17.427734 7.3632812 L 17.427734 6.5878906 C 17.517651 6.2685303 17.55813 5.9887451 17.548828 5.75 C 17.468213 5.6197754 17.407495 5.5010986 17.367188 5.3925781 L 17.191406 5.3320312 C 16.661206 5.3909424 16.202026 5.3909424 15.814453 5.3320312 z M 18.326172 5.3320312 C 17.727759 5.8405273 17.70752 6.4183838 18.265625 7.0664062 C 18.786523 7.0850098 19.205225 7.1457275 19.521484 7.2480469 C 19.484277 7.9952881 19.106055 8.2925537 18.386719 8.140625 C 18.346411 8.230542 18.285693 8.2912598 18.205078 8.3222656 L 18.148438 8.7402344 L 18.148438 8.921875 C 18.036816 9.2102295 17.996338 9.5102539 18.027344 9.8203125 C 18.16687 10.037354 18.307739 10.215942 18.447266 10.355469 C 18.676709 10.606616 18.835864 10.846729 18.925781 11.076172 C 19.313354 11.395532 19.59314 11.753516 19.763672 12.150391 C 20.07373 12.271313 20.392041 12.291553 20.720703 12.210938 C 21.17959 12.440381 21.557813 12.379663 21.855469 12.029297 C 21.784155 11.771948 21.705957 11.552881 21.619141 11.373047 C 21.45791 11.224219 21.336475 11.085303 21.255859 10.955078 C 20.719458 10.586108 20.361475 10.126929 20.181641 9.578125 C 20.411084 9.4292969 20.650391 9.3491455 20.898438 9.3398438 C 21.487549 8.5119873 21.707422 7.6562988 21.558594 6.7695312 L 21.4375 6.6484375 C 21.208057 6.2081543 20.96875 5.8676514 20.720703 5.6289062 L 20 5.453125 L 19.824219 5.3925781 L 19.642578 5.453125 L 19.521484 5.3925781 L 18.326172 5.3320312 z M 41.896484 5.3320312 C 41.61123 5.5490723 41.452881 5.8050537 41.421875 6.0996094 L 41.599609 6.3359375 L 41.660156 6.6347656 L 41.775391 6.8710938 C 41.874609 7.1749512 41.975 7.4106934 42.074219 7.578125 C 42.164136 7.9843017 42.262573 8.3212402 42.371094 8.5878906 L 42.486328 8.7636719 C 42.585547 8.9993164 42.645459 9.2175781 42.664062 9.4160156 C 42.781885 9.592749 42.860083 9.7685791 42.900391 9.9453125 L 43.021484 10.066406 L 43.021484 10.242188 C 43.108301 10.449927 43.185693 10.608276 43.253906 10.716797 C 43.452344 11.355518 43.690845 11.86748 43.966797 12.251953 L 44.087891 12.3125 L 44.501953 12.251953 L 44.738281 12.251953 C 45.181665 12.251953 45.536084 12.23252 45.802734 12.195312 C 45.898853 11.965869 45.958765 11.768994 45.980469 11.601562 L 45.802734 11.248047 C 45.604297 10.922485 45.465381 10.646265 45.384766 10.419922 L 45.267578 10.181641 L 45.03125 9.4707031 C 44.894824 9.2164551 44.797192 9.0009521 44.738281 8.8242188 L 44.677734 8.6425781 L 44.501953 8.2285156 L 44.501953 8.0527344 L 44.380859 7.875 L 44.380859 7.6992188 C 44.272339 7.5007813 44.212427 7.3027588 44.203125 7.1074219 C 44.144214 7.0578125 44.106494 6.9990478 44.087891 6.9277344 C 43.858447 6.3076172 43.619946 5.8131348 43.375 5.4472656 L 43.199219 5.3925781 C 42.724829 5.460791 42.290259 5.4405518 41.896484 5.3320312 z M 47.101562 5.3925781 C 46.884521 5.587915 46.686499 5.7260254 46.509766 5.8066406 L 46.394531 5.9824219 L 46.394531 6.1601562 L 46.273438 6.3359375 L 46.216797 6.5136719 L 46.095703 6.6933594 L 46.035156 6.8710938 C 45.89873 7.078833 45.801099 7.2951416 45.742188 7.5214844 L 45.621094 7.6386719 C 45.571484 7.9642334 45.453613 8.2404541 45.267578 8.4667969 L 45.328125 8.6425781 C 45.495557 8.8999267 45.613428 9.1181885 45.681641 9.2949219 L 45.681641 9.4707031 L 46.15625 10.535156 L 46.455078 11.009766 L 46.509766 10.773438 L 46.6875 10.419922 L 46.748047 10.302734 C 46.906177 10.01438 47.004614 9.7575928 47.044922 9.53125 L 47.162109 9.2382812 L 47.222656 9.1171875 C 47.331177 8.9311524 47.409375 8.7553223 47.458984 8.5878906 L 47.576172 8.40625 L 47.695312 8.2285156 L 47.751953 8.0527344 C 47.84187 7.786084 47.940308 7.5678223 48.048828 7.4003906 L 48.109375 7.2246094 L 48.347656 6.8710938 L 48.701172 6.0996094 C 48.760083 5.5104981 48.227075 5.2747559 47.101562 5.3925781 z M 51.28125 5.4003906 L 51.105469 5.5214844 C 50.693091 5.4625732 50.340283 5.4820068 50.048828 5.578125 C 49.989917 5.8540771 49.911719 6.0695801 49.8125 6.2246094 L 49.873047 6.578125 L 49.8125 6.7539062 C 49.871411 6.8996338 49.89165 7.0571777 49.873047 7.2246094 L 49.927734 10.046875 C 49.809912 10.800317 49.809912 11.446826 49.927734 11.986328 C 50.730786 12.330493 51.397534 12.232861 51.927734 11.693359 C 51.937036 11.302686 51.899316 10.969312 51.8125 10.693359 L 51.8125 10.400391 L 51.8125 10.224609 C 51.831104 9.8618408 51.810864 9.548706 51.751953 9.2851562 L 51.751953 8.6386719 L 51.751953 8.4609375 L 51.751953 8.2851562 L 51.751953 8.1074219 L 51.751953 7.7539062 L 51.751953 7.578125 L 51.751953 7.3398438 C 51.73335 6.9398682 51.753589 6.6092529 51.8125 6.3457031 L 51.8125 5.8710938 L 51.751953 5.4609375 L 51.28125 5.4003906 z M 25.761719 5.40625 C 23.448682 6.2279052 22.54895 7.7011231 23.060547 9.828125 C 23.479126 11.210986 24.360571 12.051953 25.703125 12.349609 C 25.898462 12.19458 26.061182 12.0521 26.191406 11.921875 C 26.337134 11.059912 26.05022 10.506665 25.333984 10.261719 L 25.087891 9.8945312 C 24.985571 9.5658692 24.924048 9.2781494 24.902344 9.0332031 C 24.942651 8.6828369 25.004175 8.3970703 25.087891 8.1738281 C 26.253711 7.3955811 26.56167 6.4728515 26.009766 5.40625 L 25.761719 5.40625 z M 9.2714844 6.5507812 C 9.1226563 6.8236328 8.9809814 7.0435059 8.8476562 7.2109375 L 8.609375 7.9960938 L 8.4296875 8.1777344 L 8.3691406 8.4746094 L 8.2480469 8.65625 L 8.1269531 8.8984375 L 8.0664062 9.0800781 L 7.9453125 9.2617188 L 7.4667969 10.582031 C 7.2063477 11.003711 7.0444336 11.405737 6.9824219 11.787109 C 7.0444336 11.89873 7.0849121 11.999927 7.1035156 12.089844 L 7.2246094 12.150391 L 7.40625 12.150391 C 7.9488525 12.172095 8.4088379 12.232813 8.7871094 12.332031 L 9.0292969 12.210938 C 9.1471191 11.80166 9.2868408 11.480591 9.4511719 11.248047 C 10.012378 11.195337 10.53584 11.256055 11.019531 11.429688 C 11.155957 11.265356 11.274634 11.143921 11.376953 11.066406 L 11.376953 10.945312 C 11.311841 10.821289 11.271362 10.699854 11.255859 10.582031 C 11.088428 10.374292 10.98999 10.154419 10.958984 9.921875 L 10.716797 9.6191406 L 10.595703 9.6796875 C 10.310449 9.5866699 10.029858 9.5664307 9.7539062 9.6191406 L 9.8144531 9.3828125 C 9.9973877 8.9921387 10.118018 8.6500244 10.173828 8.3554688 L 9.8144531 7.8144531 L 9.8144531 7.5742188 C 9.6191162 7.257959 9.5179199 6.9571289 9.5117188 6.671875 L 9.2714844 6.5507812 z M 33.515625 7.8515625 L 33.394531 7.9726562 L 33.037109 8.2714844 C 32.978198 8.8295898 33.038916 9.3264893 33.21875 9.7636719 L 34.529297 9.6425781 L 34.710938 9.703125 C 35.027197 9.0861084 35.085156 8.5090576 34.886719 7.9726562 C 34.359619 8.0005615 33.903198 7.960083 33.515625 7.8515625 z M 52.634766 7.8710938 C 51.996045 8.9687011 52.173828 9.5378174 53.166016 9.578125 C 54.223315 9.7548584 54.516211 9.2262207 54.044922 7.9921875 C 53.889893 7.9332764 53.732349 7.9130371 53.574219 7.9316406 C 53.21145 7.9595459 52.898315 7.9393066 52.634766 7.8710938 z M 28.097656 9.4609375 C 27.883716 9.696582 27.738477 9.9227783 27.664062 10.136719 L 27.542969 10.201172 C 27.155396 10.384106 26.84939 10.567871 26.623047 10.753906 C 26.468018 11.960034 26.755737 12.410474 27.484375 12.103516 C 28.467261 11.951587 29.183228 11.439624 29.632812 10.568359 L 29.632812 10.136719 L 29.326172 9.8945312 C 28.99751 9.8108154 28.730029 9.6655762 28.525391 9.4609375 L 28.097656 9.4609375 z M 54.988281 10.164062 L 54.8125 10.285156 L 54.337891 10.285156 L 54.166016 10.339844 L 53.927734 10.339844 L 53.751953 10.339844 L 52.574219 10.339844 C 52.537012 10.408057 52.499292 10.447729 52.458984 10.457031 C 52.155127 11.173267 52.213086 11.800342 52.634766 12.339844 L 52.8125 12.279297 L 53.044922 12.279297 L 53.220703 12.224609 L 53.398438 12.164062 L 53.634766 12.224609 L 53.8125 12.164062 L 53.988281 12.164062 L 54.927734 12.103516 C 55.377319 11.998096 55.555103 11.7052 55.458984 11.224609 C 55.576807 10.675806 55.419263 10.322192 54.988281 10.164062 z "
         d="M 54.839844,5.0722656 C 54.315394,5.2217024 54.826607,4.9901812 54.238281,5.1875 a 0.21487041,0.21487041 0 0 0 -0.01758,-0.00195 h -0.175781 -0.177735 a 0.21487041,0.21487041 0 0 0 -0.09961,0.025391 l -0.06836,0.035156 h -0.125 -0.761719 a 0.21487041,0.21487041 0 0 0 -0.152344,0.0625 c -0.343568,0.3419003 -0.547946,0.7103854 -0.572265,1.0996094 -0.02432,0.3892241 0.136249,0.773752 0.439453,1.1308594 a 0.21487041,0.21487041 0 0 0 0.164062,0.076172 h 0.175781 a 0.21487041,0.21487041 0 0 0 0.148438,-0.058594 L 53.074219,7.5 h 0.0918 a 0.21487041,0.21487041 0 0 0 0.07031,-0.011719 l 0.140625,-0.048828 h 0.197266 0.177734 0.236328 1.056641 a 0.21487041,0.21487041 0 0 0 0.15039,-0.0625 l 0.236329,-0.2324219 a 0.21487041,0.21487041 0 0 0 0.05664,-0.095703 c 0.152542,-0.54915 0.199701,-0.9852789 0.103516,-1.3359375 -0.09618,-0.3506585 -0.384915,-0.5938088 -0.751953,-0.640625 z m -43.445313,0.00195 c -0.490003,0.1003622 -0.917505,0.097657 -1.289062,0.00195 A 0.21487041,0.21487041 0 0 0 9.9257813,5.1113281 C 9.6485947,5.3155713 9.4823536,5.6132982 9.4785156,5.9433594 a 0.21487041,0.21487041 0 0 0 0.00586,0.054687 L 9.5449219,6.2402344 9.6035156,6.4785156 9.3691406,6.359375 A 0.21487041,0.21487041 0 0 0 9.0820313,6.4472656 C 8.9374157,6.7123942 8.8021175,6.9224226 8.6796875,7.0761719 a 0.21487041,0.21487041 0 0 0 -0.037109,0.072266 L 8.4199219,7.8828125 8.2773438,8.0273438 A 0.21487041,0.21487041 0 0 0 8.21875,8.1347656 L 8.1679688,8.390625 8.0683594,8.5371094 a 0.21487041,0.21487041 0 0 0 -0.011719,0.023437 L 7.9355469,8.8027344 a 0.21487041,0.21487041 0 0 0 -0.011719,0.027344 L 7.8710937,8.984375 7.765625,9.1425781 a 0.21487041,0.21487041 0 0 0 -0.021484,0.046875 L 7.2734375,10.486328 c -0.2652331,0.43337 -0.4371564,0.855113 -0.5039063,1.265625 a 0.21487041,0.21487041 0 0 0 0.025391,0.138672 c 0.054515,0.09813 0.0851,0.181502 0.097656,0.242188 a 0.21487041,0.21487041 0 0 0 0.1152344,0.148437 l 0.1210937,0.06055 a 0.21487041,0.21487041 0 0 0 0.095703,0.02344 H 7.40625 c 0.5274161,0.02158 0.9704986,0.08054 1.3261719,0.173829 a 0.21487041,0.21487041 0 0 0 0.1503906,-0.01563 L 9.125,12.402344 a 0.21487041,0.21487041 0 0 0 0.1113281,-0.132813 c 0.1019366,-0.354096 0.222633,-0.606339 0.3496094,-0.80664 0.4875655,-0.03144 0.9429035,0.01972 1.3613285,0.169922 a 0.21487041,0.21487041 0 0 0 0.238281,-0.06641 c 0.130538,-0.15724 0.240344,-0.267542 0.320312,-0.328125 a 0.21487041,0.21487041 0 0 0 0.08594,-0.171875 c 0.148765,0.313805 0.261255,0.623201 0.298828,0.927735 a 0.21487041,0.21487041 0 0 0 0.123047,0.169922 c 0.6444,0.293489 1.161046,0.431536 1.585937,0.371093 0.424892,-0.06044 0.732516,-0.379855 0.820313,-0.824218 a 0.21487041,0.21487041 0 0 0 -0.01758,-0.136719 l -0.107422,-0.214844 -0.05469,-0.275391 a 0.21487041,0.21487041 0 0 0 -0.04492,-0.09375 C 13.742945,10.440931 13.503544,9.8466649 13.462891,9.1875 A 0.21487041,0.21487041 0 0 0 13.414063,9.0644531 C 13.294461,8.9198188 13.207092,8.7782937 13.148438,8.6425781 L 13.033203,8.1816406 A 0.21487041,0.21487041 0 0 0 12.972656,8.0800781 L 12.890625,8 12.845703,7.8671875 12.785156,7.6855469 a 0.21487041,0.21487041 0 0 0 -0.01172,-0.027344 l -0.05274,-0.1074219 -0.09961,-0.3125 V 7.0898437 a 0.21487041,0.21487041 0 0 0 -0.07227,-0.1464843 0.21487041,0.21487041 0 0 0 -0.0059,-0.056641 C 12.484542,6.7531722 12.450036,6.6332021 12.4375,6.5253906 a 0.21487041,0.21487041 0 0 0 -0.03906,-0.099609 C 12.223239,6.1810602 12.141904,5.9461962 12.136719,5.7050781 A 0.21487041,0.21487041 0 0 0 12.052734,5.5390625 C 11.864155,5.3953831 11.710456,5.2591177 11.59375,5.1367187 a 0.21487041,0.21487041 0 0 0 -0.199219,-0.0625 z m 27.587891,0.00195 c -0.473579,0.1938977 -0.338829,0.2148909 -0.494141,0.3515625 -0.142088,0.6760339 -0.102818,0.8690754 -0.11914,1.0117187 0.06319,0.4171375 -0.0104,0.3332549 0,0.5820313 0.106431,0.1991019 -0.0368,0.6992658 -0.0039,0.4824218 V 9.140625 a 0.21487041,0.21487041 0 0 0 0.01172,0.072266 l 0.04883,0.1367188 v 1.4238286 c 0,0.281508 -0.02002,0.502273 -0.05469,0.654296 a 0.21487041,0.21487041 0 0 0 -0.002,0.08399 l 0.06055,0.349609 a 0.21487041,0.21487041 0 0 0 0.01367,0.05078 c 0.09379,0.211023 0.201907,0.38413 0.328125,0.521485 a 0.21487041,0.21487041 0 0 0 0.158203,0.07031 h 0.140625 l 0.144532,0.04883 a 0.21487041,0.21487041 0 0 0 0.160156,-0.0078 c 0.269895,-0.12685 0.546463,-0.16015 0.857422,-0.09961 a 0.21487041,0.21487041 0 0 0 0.248047,-0.154297 c 0.08374,-0.302062 0.177684,-0.541316 0.273437,-0.710938 a 0.21487041,0.21487041 0 0 0 0.02734,-0.105469 v -0.408203 a 0.21487041,0.21487041 0 0 0 -0.0039,-0.04297 l -0.06055,-0.28711 -0.04492,-0.33789 0.02734,-0.05469 A 0.21487041,0.21487041 0 0 0 40.6875,10.132813 c -0.02012,-0.03186 -0.02344,-0.05084 -0.02344,-0.0625 V 9.3730469 a 0.21487041,0.21487041 0 0 0 -0.0098,-0.064453 c -0.03229,-0.1018404 -0.04327,-0.1909675 -0.04492,-0.2714844 l 0.04883,-0.1972656 a 0.21487041,0.21487041 0 0 0 0.0059,-0.052734 V 8.5546875 7.9121094 7.6796875 7.4433594 7.2109375 7.0390625 6.8007812 c 0,-0.1773101 -0.02336,-0.3234207 -0.06055,-0.4609375 0.03935,-0.3724349 0.04369,-0.6970664 0,-0.9726562 A 0.21487041,0.21487041 0 0 0 40.482422,5.2050781 L 40.365234,5.1503906 A 0.21487041,0.21487041 0 0 0 40.25,5.1328125 c -0.495889,0.053771 -0.917912,0.031487 -1.267578,-0.056641 z m -11.746094,0.00195 a 0.21487041,0.21487041 0 0 0 -0.222656,0.066406 c -0.461389,0.5310956 -0.635989,1.1094562 -0.457031,1.6582032 0.178958,0.5487469 0.668752,1.0337431 1.429687,1.4941406 a 0.21487041,0.21487041 0 0 0 0.111328,0.03125 h 0.367188 a 0.21487041,0.21487041 0 0 0 0.126953,-0.041016 C 28.9006,8.0604649 29.20183,7.9550781 29.511719,7.9550781 a 0.21487041,0.21487041 0 0 0 0.208984,-0.1640625 c 0.117124,-0.4815097 0.14135,-0.9206787 0.0625,-1.3183594 A 0.21487041,0.21487041 0 0 0 29.638672,6.3085937 l -0.08203,-0.025391 -0.02539,-0.082031 A 0.21487041,0.21487041 0 0 0 29.421875,6.0742187 l -0.0918,-0.046875 -0.105469,-0.097656 a 0.21487041,0.21487041 0 0 0 -0.01563,-0.015625 C 28.876316,5.6607463 28.61699,5.4392557 28.431641,5.2539062 a 0.21487041,0.21487041 0 0 0 -0.158204,-0.0625 C 27.872425,5.2032881 27.525413,5.1631498 27.236328,5.078125 Z m 4.964844,0 c -0.08073,0.032552 -0.240886,0.1080729 -0.240235,0.1132812 -0.511689,-0.078737 -0.979382,-0.025458 -1.361328,0.2070313 a 0.21487041,0.21487041 0 0 0 -0.0918,0.1152344 l -0.121093,0.359375 a 0.21487041,0.21487041 0 0 0 -0.0078,0.1113281 l 0.05273,0.2578125 -0.05273,0.3183594 a 0.21487041,0.21487041 0 0 0 0.0059,0.097656 c 0.0075,0.025041 0.0058,0.036199 0,0.054687 a 0.21487041,0.21487041 0 0 0 -0.0098,0.064453 v 0.1777344 a 0.21487041,0.21487041 0 0 0 0.002,0.021484 c 0.02983,0.2983353 0.02718,0.5405636 0,0.7226562 a 0.21487041,0.21487041 0 0 0 0.0098,0.099609 l 0.04883,0.1484375 v 1.6347657 a 0.21487041,0.21487041 0 0 0 0.02344,0.095703 l 0.0293,0.058594 -0.04883,0.2890629 a 0.21487041,0.21487041 0 0 0 -0.002,0.06445 c 0.07744,0.545086 0.05606,1.014387 -0.05469,1.40625 a 0.21487041,0.21487041 0 0 0 0.0078,0.138672 l 0.238281,0.595703 a 0.21487041,0.21487041 0 0 0 0.123047,0.121094 l 0.478516,0.18164 a 0.21487041,0.21487041 0 0 0 0.154297,-0.002 c 0.347646,-0.136779 0.660161,-0.168505 0.953125,-0.109375 a 0.21487041,0.21487041 0 0 0 0.238281,-0.123047 c 0.154356,-0.340871 0.258829,-0.654877 0.3125,-0.943359 A 0.21487041,0.21487041 0 0 0 32.880859,11.25 C 32.788,10.968518 32.757814,10.73827 32.775391,10.5625 a 0.21487041,0.21487041 0 0 0 0.002,-0.02148 V 10.298828 9.9414063 9.6425781 9.2851563 9.046875 8.3925781 8.1503906 7.9121094 7.7304687 7.4941406 a 0.21487041,0.21487041 0 0 0 -0.01367,-0.074219 c -0.0059,-0.016017 -0.0059,-0.011326 0,-0.027344 a 0.21487041,0.21487041 0 0 0 0.01172,-0.1015625 L 32.716797,6.8242187 V 6.6699219 c 0.01789,-0.2772943 0.05399,-0.4987937 0.105469,-0.6640625 a 0.21487041,0.21487041 0 0 0 0.0078,-0.097656 l -0.05469,-0.359375 A 0.21487041,0.21487041 0 0 0 32.728516,5.4453125 C 32.578442,5.2630803 32.402632,5.1326873 32.201172,5.078125 Z m 4.947265,0.00391 c -0.443895,0.1470045 -0.851156,0.1630775 -1.246093,0.056641 a 0.21487041,0.21487041 0 0 0 -0.16211,0.019531 l -0.417968,0.2363281 a 0.21487041,0.21487041 0 0 0 -0.09766,0.1191407 l -0.06055,0.1816406 a 0.21487041,0.21487041 0 0 0 -0.01172,0.068359 v 1.4335937 a 0.21487041,0.21487041 0 0 0 0.0039,0.042969 l 0.05859,0.28125 0.05859,1 v -0.027344 c -0.02081,0.3150619 0.0066,0.6031289 0.06055,0.875 l -0.04883,0.1425782 a 0.21487041,0.21487041 0 0 0 -0.01172,0.070312 v 0.5996097 c -0.04887,0.70653 -0.04944,1.291349 0.002,1.753906 a 0.21487041,0.21487041 0 0 0 0.103515,0.162109 c 0.04384,0.02591 0.02785,0.03736 0.01563,-0.01563 a 0.21487041,0.21487041 0 0 0 0.134766,0.152344 c 0.189139,0.06911 0.385421,0.09494 0.578125,0.07227 l -0.02539,0.002 h 0.236328 c 0.359958,0.08418 0.684576,0.130252 0.96875,0.117187 a 0.21487041,0.21487041 0 0 0 0.158203,-0.08008 l 0.238282,-0.298828 a 0.21487041,0.21487041 0 0 0 0.04297,-0.09961 l 0.06055,-0.357422 a 0.21487041,0.21487041 0 0 0 0.0039,-0.03516 v -0.298829 a 0.21487041,0.21487041 0 0 0 -0.0078,-0.05664 c -0.07657,-0.282717 -0.112706,-0.519893 -0.113281,-0.712891 l 0.05664,-0.330078 a 0.21487041,0.21487041 0 0 0 0.002,-0.05664 c -0.04776,-0.468624 -0.02501,-0.8615359 0.05664,-1.1796871 a 0.21487041,0.21487041 0 0 0 0.0059,-0.052734 V 8.6894531 a 0.21487041,0.21487041 0 0 0 -0.03711,-0.1210937 c -0.02038,-0.029792 -0.02344,-0.045283 -0.02344,-0.060547 V 7.9121094 A 0.21487041,0.21487041 0 0 0 37.71875,7.84375 L 37.681641,7.7324219 37.71875,7.625 a 0.21487041,0.21487041 0 0 0 0.01172,-0.070312 V 7.3730469 6.8984375 a 0.21487041,0.21487041 0 0 0 0,-0.017578 c -0.02653,-0.3419336 -0.0069,-0.6367052 0.05469,-0.8886719 A 0.21487041,0.21487041 0 0 0 37.78125,5.8789062 C 37.692887,5.5866273 37.558465,5.3365257 37.375,5.1386719 a 0.21487041,0.21487041 0 0 0 -0.226563,-0.056641 z m -18.810546,0.035156 c -0.307315,0.04088 -0.712512,0.8498985 -0.574219,0.625 A 0.21487041,0.21487041 0 0 0 17.732422,5.6367187 C 17.657143,5.5151134 17.601947,5.4087889 17.568359,5.3183594 A 0.21487041,0.21487041 0 0 0 17.4375,5.1894531 l -0.175781,-0.060547 a 0.21487041,0.21487041 0 0 0 -0.09375,-0.00977 c -0.516669,0.057408 -0.957665,0.055123 -1.320313,0 a 0.21487041,0.21487041 0 0 0 -0.203125,0.080078 c -0.188849,0.2409459 -0.319534,0.4563189 -0.390625,0.6621094 a 0.21487041,0.21487041 0 0 0 -0.0078,0.1074219 c 0.05668,0.316231 0.07309,0.5802947 0.05664,0.7832031 a 0.21487041,0.21487041 0 0 0 0,0.017578 V 7.1875 c -0.03746,0.4458481 -0.03402,0.8254193 0.002,1.1582031 l -0.05664,0.2207032 a 0.21487041,0.21487041 0 0 0 -0.0059,0.048828 c -0.0089,0.3893557 -0.008,0.7067443 0,0.9746094 l -0.03711,0.074219 a 0.21487041,0.21487041 0 0 0 -0.01953,0.140625 c 0.05588,0.2646915 0.07241,0.4822245 0.05664,0.6503905 l 0.002,-0.002 c -0.07259,0.691223 -0.076,1.266489 0,1.732422 a 0.21487041,0.21487041 0 0 0 0.126953,0.162109 c 0.216762,0.09382 0.408725,0.159944 0.582031,0.195313 a 0.21487041,0.21487041 0 0 0 0.107422,-0.0059 c 0.428686,-0.133964 0.802105,-0.188709 1.11914,-0.171875 a 0.21487041,0.21487041 0 0 0 0.06445,-0.0059 c 0.220189,-0.05613 0.397514,-0.236908 0.453125,-0.455078 a 0.21487041,0.21487041 0 0 0 0.002,-0.0098 l 0.06055,-0.296875 a 0.21487041,0.21487041 0 0 0 -0.002,-0.0957 c -0.05658,-0.220382 -0.09671,-0.429999 -0.117187,-0.628906 a 0.21487041,0.21487041 0 0 0 -0.0039,-0.03125 l -0.05273,-0.207031 c 0.0441,-0.301372 0.06738,-0.574894 0.05859,-0.8144535 V 9.8125 9.6386719 a 0.21487041,0.21487041 0 0 0 0,-0.017578 l -0.05664,-0.7167969 0.0332,-0.068359 a 0.21487041,0.21487041 0 0 0 0.02148,-0.1269531 c -0.03758,-0.2515328 -0.03643,-0.4648793 -0.002,-0.6425781 a 0.21487041,0.21487041 0 0 0 0.0039,-0.041016 V 7.5449219 7.3632812 6.5917969 6.5878906 c 0.02715,-0.1020592 0.0235,-0.1836541 0.04102,-0.2792969 0.03624,0.3029195 0.166822,0.6045604 0.419922,0.8984375 a 0.21487041,0.21487041 0 0 0 0.154296,0.074219 c 0.430446,0.015373 0.740927,0.076476 1.013672,0.1464844 -0.03749,0.2077259 -0.101188,0.3615255 -0.195312,0.4355468 -0.123116,0.096821 -0.320033,0.1349427 -0.644531,0.066406 a 0.21487041,0.21487041 0 0 0 -0.240235,0.1230469 c -0.02213,0.049371 -0.03586,0.058114 -0.0625,0.068359 a 0.21487041,0.21487041 0 0 0 -0.136719,0.171875 l -0.05664,0.4179687 a 0.21487041,0.21487041 0 0 0 -0.002,0.029297 v 0.15625 c -0.108814,0.303427 -0.151512,0.621598 -0.119141,0.9453125 a 0.21487041,0.21487041 0 0 0 0.03125,0.09375 c 0.146107,0.2272791 0.296002,0.4190491 0.449219,0.5722661 0.212333,0.233968 0.355524,0.452256 0.43164,0.646484 a 0.21487041,0.21487041 0 0 0 0.0625,0.08789 c 0.365925,0.301521 0.621962,0.63057 0.777344,0.992187 a 0.21487041,0.21487041 0 0 0 0.119141,0.115234 c 0.324111,0.126403 0.665906,0.147003 1.007812,0.07813 0.234004,0.105256 0.467046,0.156721 0.689453,0.121094 0.244321,-0.03914 0.462784,-0.176123 0.636719,-0.380859 a 0.21487041,0.21487041 0 0 0 0.04297,-0.195313 c -0.07373,-0.266062 -0.155445,-0.497495 -0.25,-0.693359 a 0.21487041,0.21487041 0 0 0 -0.04687,-0.06445 c -0.151777,-0.140102 -0.260388,-0.266782 -0.326172,-0.373047 a 0.21487041,0.21487041 0 0 0 -0.0625,-0.06445 C 20.939371,10.476347 20.66388,10.111587 20.484375,9.6953125 20.624028,9.63179 20.762505,9.5600779 20.90625,9.5546875 a 0.21487041,0.21487041 0 0 0 0.167969,-0.089844 C 21.689237,8.6005807 21.927811,7.6774574 21.769531,6.734375 A 0.21487041,0.21487041 0 0 0 21.710937,6.6171875 L 21.595703,6.5019531 C 21.368182,6.0754267 21.129113,5.7248324 20.869141,5.4746094 a 0.21487041,0.21487041 0 0 0 -0.09766,-0.054687 L 20.060547,5.2460937 19.894531,5.1894531 a 0.21487041,0.21487041 0 0 0 -0.138672,0 l -0.09766,0.03125 -0.04102,-0.019531 a 0.21487041,0.21487041 0 0 0 -0.08398,-0.023437 z M 41.953125,5.125 a 0.21487041,0.21487041 0 0 0 -0.1875,0.035156 C 41.446078,5.4032897 41.246606,5.7187665 41.208984,6.0761719 A 0.21487041,0.21487041 0 0 0 41.25,6.2285156 l 0.148437,0.1972656 0.05078,0.2519532 a 0.21487041,0.21487041 0 0 0 0.01758,0.050781 l 0.115234,0.234375 v 0.00195 c 0.09342,0.2813589 0.189701,0.5058384 0.291016,0.6835938 0.08998,0.4016351 0.186203,0.7427978 0.298828,1.0195313 a 0.21487041,0.21487041 0 0 0 0.01953,0.037109 l 0.101563,0.1542969 c 0.08936,0.2150805 0.140605,0.4092863 0.15625,0.5761719 a 0.21487041,0.21487041 0 0 0 0.03516,0.099609 c 0.105678,0.1585159 0.173249,0.3089112 0.207031,0.4570312 a 0.21487041,0.21487041 0 0 0 0.05664,0.1054685 l 0.05859,0.05859 v 0.08594 a 0.21487041,0.21487041 0 0 0 0.01758,0.08203 c 0.08051,0.192659 0.152903,0.336104 0.224609,0.457031 0.0017,0.0029 0.0022,0.0088 0.0039,0.01172 0.202489,0.648416 0.447706,1.176415 0.740235,1.583984 a 0.21487041,0.21487041 0 0 0 0.07813,0.06641 l 0.121093,0.06055 a 0.21487041,0.21487041 0 0 0 0.126954,0.02149 l 0.398437,-0.05859 h 0.220703 c 0.449662,0 0.811433,-0.0192 1.09375,-0.05859 A 0.21487041,0.21487041 0 0 0 46,12.279297 c 0.100749,-0.240495 0.167936,-0.454264 0.193359,-0.650391 a 0.21487041,0.21487041 0 0 0 -0.02148,-0.123047 l -0.177734,-0.353515 a 0.21487041,0.21487041 0 0 0 -0.0078,-0.01563 c -0.193521,-0.317497 -0.32546,-0.584165 -0.398437,-0.789063 a 0.21487041,0.21487041 0 0 0 -0.0098,-0.02344 l -0.111328,-0.22461 -0.232422,-0.6972652 a 0.21487041,0.21487041 0 0 0 -0.01367,-0.033203 C 45.088001,9.1218319 44.994367,8.9147414 44.941406,8.7558594 L 44.880859,8.5742188 A 0.21487041,0.21487041 0 0 0 44.875,8.5585938 L 44.716797,8.1855469 V 8.0527344 A 0.21487041,0.21487041 0 0 0 44.679687,7.9316406 L 44.595703,7.8085937 V 7.6992187 A 0.21487041,0.21487041 0 0 0 44.570312,7.5957031 C 44.474691,7.4208511 44.425514,7.2561022 44.417969,7.0976562 a 0.21487041,0.21487041 0 0 0 -0.07617,-0.1542968 c -0.02953,-0.024869 -0.0389,-0.039742 -0.04687,-0.070312 a 0.21487041,0.21487041 0 0 0 -0.0059,-0.019531 C 44.055703,6.2228155 43.811599,5.7147837 43.552734,5.328125 A 0.21487041,0.21487041 0 0 0 43.439453,5.2421875 L 43.263672,5.1875 a 0.21487041,0.21487041 0 0 0 -0.0957,-0.00781 C 42.717801,5.2444174 42.314464,5.2245814 41.953125,5.125 Z m 5.896484,0.029297 c -0.806757,0.02782 -0.532168,-0.077011 -0.892578,0.078125 -0.476911,0.4188965 -0.374876,0.2214175 -0.626953,0.4570312 -0.16493,0.1871716 -0.155429,0.3626891 -0.150391,0.4042969 -0.1326,0.1375958 -0.394669,0.6178959 -0.261718,0.4804687 -0.08368,0.2971627 -0.457341,1.2167317 -0.34961,0.8164063 l -0.0957,0.09375 a 0.21487041,0.21487041 0 0 0 -0.06445,0.1210937 c -0.0447,0.2933503 -0.146783,0.5301161 -0.306641,0.7246094 a 0.21487041,0.21487041 0 0 0 -0.03711,0.2070313 L 45.125,8.7128906 a 0.21487041,0.21487041 0 0 0 0.02344,0.046875 c 0.155576,0.2391246 0.25707,0.4354286 0.31836,0.5878907 v 0.1230468 a 0.21487041,0.21487041 0 0 0 0.01953,0.087891 l 0.474609,1.0644532 a 0.21487041,0.21487041 0 0 0 0.01367,0.02734 L 46.273437,11.125 a 0.21487041,0.21487041 0 0 0 0.390625,-0.06641 l 0.04883,-0.210938 0.166015,-0.330078 0.05664,-0.111328 c 0.165912,-0.302545 0.274336,-0.57972 0.320312,-0.8378906 l -0.01172,0.042969 0.113281,-0.2851562 0.05078,-0.1015625 0.0059,-0.011719 c 0.100705,-0.1742573 0.17053,-0.3422622 0.22461,-0.5078125 v -0.00195 l 0.117187,-0.1796875 0.117188,-0.1757812 a 0.21487041,0.21487041 0 0 0 0.02734,-0.052734 l 0.05664,-0.1757813 c 0.08581,-0.2538973 0.177431,-0.4564498 0.271485,-0.6015625 a 0.21487041,0.21487041 0 0 0 0.02344,-0.046875 l 0.05078,-0.1503906 0.222657,-0.3300781 a 0.21487041,0.21487041 0 0 0 0.01758,-0.029297 l 0.353515,-0.7714844 a 0.21487041,0.21487041 0 0 0 0.01758,-0.068359 C 48.932123,5.9404862 48.905448,5.7652829 48.820312,5.6171875 48.735177,5.4690921 48.596545,5.3580562 48.431641,5.2851562 48.266736,5.2122563 48.074058,5.1700728 47.849609,5.1542969 Z M 51.308594,5.1875 C 51.037764,5.2458912 51.16382,5.2294882 51.042969,5.3046875 50.647154,5.2584637 50.28945,5.2737459 49.982422,5.375 a 0.21487041,0.21487041 0 0 0 -0.144531,0.1582031 c -0.05557,0.2603235 -0.128914,0.4541138 -0.207032,0.5761719 a 0.21487041,0.21487041 0 0 0 -0.0293,0.1523437 l 0.05078,0.2988282 -0.04297,0.1230468 a 0.21487041,0.21487041 0 0 0 0.0039,0.1503907 c 0.04515,0.1116968 0.06196,0.2314553 0.04687,0.3671875 a 0.21487041,0.21487041 0 0 0 -0.002,0.027344 l 0.05469,2.8105474 c -0.116568,0.760629 -0.118128,1.424455 0.0059,1.992187 a 0.21487041,0.21487041 0 0 0 0.125,0.152344 c 0.85615,0.366921 1.652094,0.25464 2.236328,-0.339844 a 0.21487041,0.21487041 0 0 0 0.04687,-0.109375 c 0.06173,0.26041 0.161331,0.512389 0.337891,0.738281 a 0.21487041,0.21487041 0 0 0 0.238281,0.07031 l 0.144531,-0.04883 h 0.197266 a 0.21487041,0.21487041 0 0 0 0.06445,-0.0098 l 0.175781,-0.05469 a 0.21487041,0.21487041 0 0 0 0.0039,-0.002 l 0.117188,-0.03906 0.175781,0.04492 a 0.21487041,0.21487041 0 0 0 0.121094,-0.0059 l 0.144531,-0.04883 h 0.140625 a 0.21487041,0.21487041 0 0 0 0.01367,0 l 0.939453,-0.06055 a 0.21487041,0.21487041 0 0 0 0.03516,-0.0059 c 0.261722,-0.06137 0.481048,-0.190857 0.605469,-0.396484 0.115749,-0.191296 0.13309,-0.427861 0.0918,-0.679688 0.05729,-0.289016 0.05053,-0.551744 -0.04883,-0.77539 -0.103339,-0.232613 -0.306338,-0.40406 -0.5625,-0.4980474 a 0.21487041,0.21487041 0 0 0 -0.195313,0.023437 l -0.121093,0.083985 h -0.408203 a 0.21487041,0.21487041 0 0 0 -0.06445,0.0098 L 54.132812,10.125 h -0.205078 -0.175781 -1.177734 a 0.21487041,0.21487041 0 0 0 -0.189453,0.111328 c -0.02475,0.04537 -0.0361,0.02591 0.02539,0.01172 a 0.21487041,0.21487041 0 0 0 -0.148437,0.125 c -0.114848,0.270712 -0.164388,0.534652 -0.181641,0.792969 -0.02042,-0.17893 -0.01416,-0.383453 -0.0625,-0.53711 l 0.0098,0.06445 v -0.292968 -0.164063 -0.01172 c 0.01819,-0.371586 -0.0026,-0.7010193 -0.06641,-0.9863277 l 0.0059,0.046875 V 8.6386719 8.4609375 8.2851563 8.1074219 7.7539062 7.578125 7.3398437 a 0.21487041,0.21487041 0 0 0 0,-0.00977 c -0.01801,-0.3872626 0.0018,-0.7010579 0.05469,-0.9375 a 0.21487041,0.21487041 0 0 0 0.0059,-0.046875 V 5.8710937 a 0.21487041,0.21487041 0 0 0 -0.002,-0.03125 L 51.964844,5.4296875 A 0.21487041,0.21487041 0 0 0 51.779297,5.2480469 Z m -25.546875,0.00391 a 0.21487041,0.21487041 0 0 0 -0.07227,0.011719 c -1.186405,0.421444 -2.037963,1.0209197 -2.521484,1.8125 -0.483522,0.7915803 -0.58154,1.7609714 -0.316407,2.8632813 a 0.21487041,0.21487041 0 0 0 0.0039,0.011719 c 0.435811,1.439792 1.394139,2.356104 2.800781,2.667969 a 0.21487041,0.21487041 0 0 0 0.179687,-0.04102 c 0.200037,-0.158759 0.369718,-0.305263 0.507813,-0.443359 a 0.21487041,0.21487041 0 0 0 0.05859,-0.117188 c 0.01638,-0.09687 0.0074,-0.179794 0.01367,-0.271484 0.0273,0.154652 0.05117,0.310119 0.125,0.425781 0.09995,0.156572 0.266145,0.267157 0.449218,0.292969 0.183074,0.02581 0.373979,-0.01751 0.578125,-0.103516 l -0.05078,0.01563 c 1.03933,-0.160654 1.83016,-0.727001 2.306641,-1.65039 a 0.21487041,0.21487041 0 0 0 0.02344,-0.09766 v -0.43164 A 0.21487041,0.21487041 0 0 0 29.765625,9.96875 L 29.458984,9.7265625 a 0.21487041,0.21487041 0 0 0 -0.08008,-0.041016 C 29.080824,9.6096203 28.852122,9.4829819 28.677734,9.3085938 a 0.21487041,0.21487041 0 0 0 -0.152343,-0.0625 h -0.427735 a 0.21487041,0.21487041 0 0 0 -0.158203,0.070312 C 27.741684,9.5342391 27.616383,9.7508086 27.523437,9.96875 l -0.07227,0.039063 c -0.398323,0.188007 -0.718735,0.377796 -0.964844,0.580078 a 0.21487041,0.21487041 0 0 0 -0.07617,0.138672 c -0.02128,0.165568 -0.01495,0.287988 -0.02148,0.429687 -0.02714,-0.136959 -0.05,-0.275911 -0.111328,-0.394531 -0.157622,-0.304877 -0.439888,-0.520537 -0.792969,-0.660156 L 25.289062,9.8105469 C 25.196425,9.5089619 25.141615,9.2472585 25.121094,9.03125 25.158157,8.7244 25.21402,8.4782282 25.28125,8.2890625 25.841275,7.8978494 26.231174,7.4628366 26.396484,6.9667969 26.570247,6.4453957 26.496241,5.8768869 26.201172,5.3066406 A 0.21487041,0.21487041 0 0 0 26.009766,5.1914062 Z M 9.7089844,6.6386719 9.9316406,6.9082031 10.453125,7.9472656 c 0.09405,0.307636 0.150356,0.5738373 0.169922,0.7890625 a 0.21487041,0.21487041 0 0 0 0.03516,0.099609 l 0.101563,0.1503906 0.05078,0.2070313 a 0.21487041,0.21487041 0 0 0 0.03516,0.074219 c 0.02051,0.027831 0.01995,0.036472 0.01953,0.044922 a 0.21487041,0.21487041 0 0 0 0.03906,0.1328125 c 0.02909,0.041556 0.0256,0.079242 0.04492,0.1191406 l -0.06445,-0.080078 a 0.21487041,0.21487041 0 0 0 -0.263672,-0.056641 l -0.05469,0.027344 C 10.390477,9.4067463 10.214785,9.3871538 10.039063,9.3886719 10.203199,9.0255952 10.328898,8.6893916 10.384766,8.3945313 A 0.21487041,0.21487041 0 0 0 10.353516,8.2363281 L 10.029297,7.75 V 7.5742187 A 0.21487041,0.21487041 0 0 0 9.9980469,7.4609375 C 9.8172861,7.1682771 9.7317311,6.905727 9.7265625,6.6679687 A 0.21487041,0.21487041 0 0 0 9.7089844,6.6386719 Z M 33.574219,7.6445312 c -0.51663,0.135492 -0.147715,0.024965 -0.324219,0.1699219 -0.391877,0.4111825 -0.219676,-0.071719 -0.425781,0.4335938 -0.06193,0.5866703 1.62e-4,1.1232396 0.195312,1.5976562 a 0.21487041,0.21487041 0 0 0 0.21875,0.1328125 L 34.503906,9.8613281 34.642578,9.90625 A 0.21487041,0.21487041 0 0 0 34.902344,9.8007813 C 35.238545,9.144858 35.308448,8.4946329 35.087891,7.8984375 A 0.21487041,0.21487041 0 0 0 34.875,7.7578125 c -0.509608,0.026979 -0.942024,-0.012829 -1.300781,-0.1132813 z m 19.115234,0.019531 a 0.21487041,0.21487041 0 0 0 -0.240234,0.099609 c -0.331838,0.5702454 -0.487306,1.0300009 -0.365235,1.421875 0.06104,0.195937 0.203699,0.3557419 0.390625,0.453125 0.182123,0.094881 0.406712,0.1380417 0.666016,0.1503906 0.278328,0.045569 0.51907,0.052635 0.728516,-0.00195 0.212253,-0.055319 0.395792,-0.184618 0.498046,-0.3691406 0.204509,-0.3690453 0.123492,-0.8615261 -0.121093,-1.5019532 a 0.21487041,0.21487041 0 0 0 -0.125,-0.125 C 53.936159,7.7207402 53.741362,7.6960989 53.548828,7.71875 l 0.0098,-0.00195 c -0.345422,0.026571 -0.635576,0.00772 -0.869141,-0.052734 z" /></g><g
       id="g2"
       inkscape:label="g2"
       style="display:inline;stroke-width:0.467043"
       transform="translate(0.16853202)"><text
         xml:space="preserve"
         style="font-style:normal;font-variant:normal;font-weight:normal;font-stretch:normal;font-size:9.525px;line-height:1;font-family:'Know Your Product';-inkscape-font-specification:'Know Your Product';letter-spacing:0px;writing-mode:lr-tb;direction:ltr;display:inline;mix-blend-mode:normal;fill:#646464;fill-opacity:1;stroke:none;stroke-width:0.988573;stroke-linecap:round;stroke-opacity:1;paint-order:stroke fill markers"
         x="7.0195928"
         y="12.284642"
         id="text2"><tspan
           sodipodi:role="line"
           id="tspan2"
           style="fill:#646464;fill-opacity:1;stroke:none;stroke-width:0.988573;stroke-opacity:1"
           x="7.0195928"
           y="12.284642">archive</tspan></text><text
         xml:space="preserve"
         style="font-style:normal;font-variant:normal;font-weight:normal;font-stretch:normal;font-size:9.525px;line-height:1;font-family:'Know Your Product';-inkscape-font-specification:'Know Your Product';letter-spacing:0px;writing-mode:lr-tb;direction:ltr;fill:#dedede;fill-opacity:1;stroke:none;stroke-width:0.988573;stroke-linecap:round;stroke-opacity:1;paint-order:stroke fill markers"
         x="7.3566566"
         y="11.928405"
         id="text1"><tspan
           sodipodi:role="line"
           id="tspan1"
           style="fill:#dedede;fill-opacity:1;stroke:none;stroke-width:0.988573;stroke-opacity:1"
           x="7.3566566"
           y="11.928405">Archive</tspan></text></g></g></svg>
